<?xml version="1.0" standalone="no"?>
<!DOCTYPE svg PUBLIC "-//W3C//DTD SVG 20010904//EN"
 "http://www.w3.org/TR/2001/REC-SVG-20010904/DTD/svg10.dtd">
<svg version="1.0" xmlns="http://www.w3.org/2000/svg"
 width="200.000000pt" height="200.000000pt" viewBox="0 0 200.000000 200.000000"
 preserveAspectRatio="xMidYMid meet">
<metadata>
Created by potrace 1.16, written by Peter Selinger 2001-2019
</metadata>
<g transform="translate(0.000000,200.000000) scale(0.006120,-0.006120)"
fill="#000000" stroke="none">
<path d="M14065 32601 c-3 -5 -37 -17 -76 -25 -38 -9 -93 -26 -122 -37 -46
-19 -83 -22 -332 -30 -237 -7 -292 -11 -355 -29 -41 -11 -113 -30 -159 -40
-46 -11 -96 -28 -110 -37 -14 -10 -46 -27 -71 -39 -80 -38 -167 -102 -237
-174 -82 -86 -96 -94 -220 -125 -114 -28 -238 -70 -268 -89 -11 -7 -45 -17
-75 -21 -75 -10 -112 -27 -141 -64 -63 -82 -102 -120 -228 -214 -171 -129
-462 -410 -444 -428 10 -10 17 -9 35 8 13 11 34 26 48 33 14 7 52 37 85 66 35
30 101 72 155 99 66 32 113 63 155 103 75 73 116 102 190 139 33 16 74 37 90
46 70 38 195 89 260 106 39 11 120 38 180 60 183 69 198 72 339 74 168 2 186
-6 186 -87 0 -57 -13 -77 -60 -91 -47 -14 -165 -66 -316 -141 -83 -41 -154
-74 -158 -74 -4 0 -26 -13 -49 -29 -23 -15 -52 -31 -64 -35 -12 -4 -59 -29
-105 -56 -46 -27 -107 -63 -135 -79 -29 -17 -53 -34 -53 -37 0 -13 119 10 165
31 28 13 86 31 130 40 43 9 84 20 90 24 13 12 156 51 182 51 12 0 35 11 51 25
45 38 201 101 267 108 33 3 87 16 120 28 33 11 93 25 134 30 41 4 96 16 124
25 41 13 66 15 131 8 106 -11 194 -8 231 6 61 24 194 40 325 40 168 0 244 -12
323 -51 66 -32 103 -33 172 -5 55 23 70 57 67 147 -4 99 2 103 137 97 82 -4
105 -9 157 -36 33 -17 68 -42 78 -56 21 -33 83 -72 160 -101 l61 -23 3 -56 c3
-52 1 -56 -22 -62 -13 -3 -34 -16 -45 -28 -18 -20 -20 -27 -10 -55 12 -33 51
-59 119 -79 19 -6 62 -22 95 -36 33 -14 70 -26 83 -26 20 0 22 -5 22 -60 0
-54 -2 -60 -22 -64 -27 -6 -456 -24 -753 -32 -261 -7 -456 -41 -535 -93 -14
-9 -42 -24 -63 -34 -20 -9 -46 -31 -57 -49 -18 -30 -18 -33 -2 -61 18 -30 59
-57 87 -57 9 0 60 24 113 53 l97 52 330 7 c182 3 371 11 420 17 186 22 597 9
722 -23 l48 -12 3 -85 c2 -77 0 -90 -24 -133 -30 -53 -49 -63 -144 -77 -36 -5
-87 -16 -115 -24 -27 -8 -88 -23 -135 -34 -219 -51 -320 -86 -320 -111 0 -24
53 -61 130 -90 77 -28 99 -32 230 -37 133 -5 150 -4 205 17 49 18 88 23 210
27 83 2 168 1 190 -4 l40 -9 3 -62 c2 -44 -1 -63 -10 -66 -56 -17 -259 -50
-407 -67 -102 -11 -106 -13 -149 -52 -24 -23 -53 -59 -64 -81 -19 -38 -20 -40
-2 -53 39 -28 97 -36 319 -42 272 -7 279 -9 290 -90 8 -57 19 -70 84 -92 l46
-16 3 -56 c4 -84 14 -82 -358 -82 -264 -1 -324 -4 -370 -18 -88 -26 -102 -77
-27 -92 18 -4 48 -16 67 -27 31 -18 54 -20 212 -22 163 -1 179 -3 205 -22 24
-18 28 -29 31 -78 4 -73 -24 -125 -82 -156 -39 -20 -53 -21 -221 -16 -99 2
-253 8 -343 12 -175 8 -172 8 -432 -53 -127 -30 -273 -91 -358 -150 -88 -62
-95 -76 -96 -187 -1 -88 -3 -96 -36 -148 -55 -86 -108 -127 -193 -150 -79 -21
-145 -59 -194 -110 -17 -18 -52 -53 -78 -78 -25 -25 -53 -58 -62 -75 -9 -16
-34 -51 -57 -77 -40 -47 -42 -48 -100 -48 -48 0 -65 5 -93 26 -32 24 -33 27
-33 95 0 82 13 111 75 174 25 24 45 51 45 59 0 7 7 20 16 27 14 12 90 162 108
213 5 16 1 14 -26 -8 -18 -14 -53 -40 -78 -57 -61 -42 -246 -225 -277 -272
-13 -21 -39 -45 -58 -53 -43 -18 -139 -19 -153 -1 -6 7 -14 44 -18 82 -11 114
-39 140 -129 120 -83 -20 -122 -44 -214 -130 -47 -44 -97 -89 -111 -98 -14
-10 -40 -29 -59 -42 -29 -21 -45 -25 -105 -25 -98 0 -116 13 -116 86 0 69 27
124 74 152 19 11 42 36 52 54 9 18 35 52 58 75 22 22 56 59 74 81 19 24 61 55
105 77 39 21 99 57 132 80 33 22 82 54 108 69 27 15 46 30 43 33 -7 7 -75 -16
-121 -42 -22 -12 -51 -26 -65 -30 -69 -20 -160 -61 -200 -90 -25 -18 -63 -42
-86 -53 -22 -11 -47 -28 -54 -37 -8 -9 -35 -27 -61 -41 -66 -33 -152 -90 -266
-176 -29 -23 -46 -28 -92 -28 -36 0 -65 6 -80 17 -22 15 -23 20 -18 92 3 42
13 94 22 115 32 77 201 264 271 299 17 9 50 33 75 55 24 22 64 56 89 75 138
110 269 213 320 250 18 13 19 16 6 12 -10 -3 -50 -12 -88 -20 -39 -8 -89 -25
-112 -38 -22 -13 -54 -27 -70 -31 -16 -4 -48 -20 -70 -35 -23 -15 -68 -45
-101 -66 -33 -20 -105 -66 -159 -101 -93 -60 -103 -64 -157 -64 -86 0 -89 2
-89 75 0 66 18 122 45 145 29 24 45 68 45 127 0 53 3 60 38 96 33 34 34 37 12
29 -14 -6 -56 -30 -92 -55 -37 -26 -89 -57 -116 -71 -27 -14 -62 -35 -78 -48
-16 -13 -55 -39 -87 -58 -32 -19 -132 -106 -222 -192 -91 -86 -178 -164 -194
-173 -37 -19 -211 -21 -229 -3 -17 17 -15 113 3 149 9 16 42 59 75 95 32 35
62 73 65 84 3 10 41 45 84 77 72 54 141 123 178 179 9 14 33 28 57 35 44 12
95 54 128 107 11 18 34 40 51 49 17 8 57 38 90 64 68 58 155 114 212 139 22
10 59 41 83 69 39 46 41 50 17 41 -15 -6 -41 -21 -58 -34 -18 -13 -77 -47
-132 -76 -55 -28 -107 -57 -115 -65 -8 -7 -38 -24 -67 -39 -29 -14 -76 -45
-105 -69 -29 -23 -88 -63 -131 -87 -43 -25 -116 -76 -162 -115 -46 -38 -113
-95 -150 -125 -37 -30 -113 -92 -169 -138 -171 -140 -326 -284 -379 -352 -73
-93 -164 -192 -195 -212 -31 -21 -122 -24 -140 -6 -7 7 -12 41 -12 82 l0 70
65 64 c36 35 65 67 65 70 0 4 18 27 40 51 22 25 40 52 40 61 0 10 6 23 14 29
8 7 22 29 32 49 18 39 67 107 122 172 l33 39 -33 -9 c-18 -6 -59 -10 -90 -10
l-57 0 -12 43 c-19 69 6 237 43 286 7 9 -3 2 -22 -15 -40 -36 -93 -47 -225
-48 -75 -1 -80 0 -93 24 -9 17 -12 52 -9 110 3 75 8 93 42 159 38 73 39 77 45
215 l7 141 124 118 c120 115 123 131 9 48 -99 -72 -214 -147 -285 -186 -124
-69 -159 -85 -215 -100 -85 -22 -279 -99 -340 -134 -30 -17 -89 -49 -130 -70
-41 -22 -104 -55 -140 -75 -36 -19 -85 -46 -110 -58 -155 -79 -328 -239 -425
-394 -11 -18 -43 -65 -71 -105 -28 -41 -63 -99 -77 -129 -15 -30 -44 -82 -66
-115 -22 -33 -53 -82 -71 -110 -17 -27 -49 -79 -72 -115 -22 -36 -49 -85 -59
-109 -11 -23 -28 -54 -38 -68 -11 -13 -27 -46 -36 -73 -9 -27 -22 -54 -30 -60
-7 -6 -33 -55 -57 -108 -42 -96 -43 -99 -48 -233 l-5 -136 -50 -70 c-28 -39
-84 -117 -125 -174 -91 -125 -100 -140 -151 -239 -38 -73 -44 -80 -87 -94 -25
-9 -69 -16 -98 -16 -66 0 -90 -19 -119 -96 -24 -63 -77 -190 -99 -239 -8 -16
-23 -59 -34 -95 -11 -36 -27 -78 -36 -95 -9 -16 -16 -33 -16 -37 0 -5 -13 -36
-29 -70 -16 -35 -35 -83 -44 -108 -8 -25 -24 -70 -35 -100 -12 -30 -30 -89
-41 -130 -11 -41 -29 -101 -40 -133 -12 -33 -25 -96 -31 -140 -11 -93 -20
-133 -65 -307 -20 -74 -35 -163 -39 -219 -3 -51 -10 -110 -15 -130 -5 -20 -14
-82 -21 -137 -6 -56 -22 -141 -35 -190 -13 -48 -29 -131 -35 -183 -6 -53 -21
-141 -32 -195 -22 -108 -19 -203 7 -301 32 -119 26 -408 -11 -492 -12 -29 -18
-93 -26 -268 -6 -169 -14 -254 -30 -322 -11 -51 -17 -100 -14 -110 4 -9 14
-67 22 -128 20 -151 36 -180 163 -290 l103 -90 -6 -80 c-7 -107 -40 -186 -139
-332 -24 -36 -38 -72 -46 -118 -7 -37 -23 -106 -36 -154 -61 -221 -74 -273
-89 -368 -8 -57 -22 -116 -31 -132 -8 -17 -15 -43 -15 -59 0 -16 -9 -41 -21
-56 -18 -23 -27 -26 -85 -26 -54 0 -76 6 -134 35 -87 44 -131 54 -195 42 -92
-16 -198 -112 -241 -219 -26 -66 -27 -72 -15 -129 13 -64 59 -145 109 -192 16
-16 58 -43 93 -61 101 -51 149 -85 159 -112 6 -14 10 -54 10 -89 l0 -63 -48
-35 c-121 -89 -275 -115 -465 -78 -133 26 -263 27 -333 3 -95 -33 -146 -74
-193 -156 -58 -102 -65 -163 -26 -243 32 -65 93 -135 145 -168 40 -25 115 -51
177 -60 23 -4 54 -16 68 -27 22 -17 25 -27 25 -80 0 -45 -6 -70 -22 -97 -19
-30 -23 -50 -22 -116 0 -68 4 -86 26 -121 43 -67 119 -135 187 -167 56 -27 77
-31 193 -36 l130 -7 40 -44 c22 -25 59 -66 82 -91 23 -25 66 -59 96 -75 78
-41 93 -74 86 -187 -9 -138 15 -205 107 -304 33 -36 187 -107 253 -118 22 -3
55 -15 72 -25 29 -18 32 -25 32 -67 0 -27 -4 -63 -10 -82 -9 -34 -70 -119
-141 -198 -46 -51 -77 -110 -118 -231 l-32 -92 21 -63 c36 -106 48 -123 120
-177 76 -56 192 -100 268 -100 35 0 109 -21 113 -32 1 -2 4 -68 8 -148 8 -190
26 -229 144 -329 98 -82 111 -96 125 -140 22 -63 101 -169 182 -242 107 -97
146 -164 205 -354 26 -82 71 -201 102 -263 30 -62 65 -145 79 -184 27 -81 51
-121 135 -224 31 -40 64 -85 73 -101 18 -36 41 -136 50 -218 11 -93 26 -174
46 -240 10 -33 21 -85 25 -116 7 -60 13 -75 90 -200 28 -45 55 -91 62 -103 18
-32 84 -91 154 -137 35 -24 93 -68 128 -100 37 -33 86 -66 116 -77 93 -36 165
-89 187 -138 18 -42 19 -57 10 -227 -7 -164 -11 -187 -32 -224 -17 -30 -35
-47 -64 -58 -55 -22 -133 -75 -176 -120 -32 -33 -35 -41 -35 -94 1 -33 6 -66
14 -74 7 -9 41 -32 75 -51 l63 -34 83 24 c88 26 226 33 274 14 25 -9 26 -12
26 -107 0 -130 19 -185 80 -229 64 -47 89 -50 158 -19 46 21 71 25 118 23 l59
-3 5 -100 c5 -108 13 -127 82 -191 47 -45 70 -49 123 -24 60 29 110 88 131
154 25 79 50 99 128 104 l63 4 77 -67 c54 -48 85 -84 106 -124 43 -87 98 -150
214 -246 58 -48 112 -100 120 -114 78 -149 134 -245 167 -288 21 -28 64 -93
95 -145 31 -51 77 -116 103 -144 67 -74 158 -229 201 -342 40 -106 84 -171
166 -245 90 -80 130 -127 150 -176 19 -45 18 -210 -2 -331 -8 -52 -19 -174
-24 -270 -5 -96 -16 -250 -25 -343 -8 -92 -15 -226 -15 -297 0 -173 -24 -284
-92 -427 -22 -48 -47 -175 -48 -245 0 -93 34 -273 72 -373 18 -48 22 -80 22
-165 0 -100 -2 -108 -36 -175 -19 -38 -41 -88 -48 -110 -7 -22 -18 -47 -25
-55 -7 -8 -37 -55 -66 -105 -28 -49 -64 -104 -78 -122 -14 -17 -44 -60 -65
-95 -21 -35 -54 -85 -71 -113 -18 -27 -51 -81 -74 -120 -88 -151 -132 -215
-167 -242 l-37 -28 -246 -7 c-271 -7 -248 -3 -523 -97 -99 -34 -176 -54 -240
-62 -124 -14 -293 -73 -388 -134 -115 -74 -207 -113 -311 -131 -51 -9 -117
-25 -145 -35 -66 -25 -280 -135 -314 -161 -14 -11 -38 -26 -55 -34 -35 -16
-29 -12 -220 -137 -118 -78 -172 -121 -256 -205 -145 -148 -251 -239 -300
-261 -42 -19 -95 -54 -152 -102 -18 -14 -51 -38 -75 -53 -23 -14 -80 -56 -127
-92 -46 -36 -122 -86 -167 -112 l-83 -47 -161 -1 c-179 -1 -213 -6 -299 -38
-33 -13 -79 -28 -102 -35 -29 -8 -75 -40 -153 -109 -62 -53 -122 -103 -134
-111 -11 -8 -57 -49 -101 -91 -131 -125 -373 -296 -429 -304 -17 -2 -81 -9
-143 -15 -73 -7 -135 -20 -180 -37 -37 -14 -92 -30 -121 -34 -57 -10 -208 -66
-263 -99 -19 -11 -77 -34 -129 -50 -266 -84 -274 -88 -339 -146 -32 -28 -95
-71 -141 -95 -46 -23 -101 -55 -123 -71 -22 -16 -44 -29 -50 -29 -5 0 -41 -28
-81 -63 -90 -80 -162 -131 -203 -145 -37 -12 -92 -44 -287 -167 -121 -76 -148
-89 -215 -102 -84 -16 -235 -69 -321 -113 -30 -15 -68 -31 -85 -34 -16 -4 -47
-18 -67 -31 -21 -14 -65 -29 -103 -35 -36 -6 -89 -21 -118 -34 -29 -12 -77
-31 -107 -41 -29 -10 -67 -26 -84 -35 -17 -10 -49 -23 -71 -30 -22 -7 -51 -20
-64 -29 -14 -9 -59 -26 -100 -38 -222 -64 -285 -91 -357 -153 -54 -47 -76 -60
-102 -60 -18 0 -47 -7 -64 -16 -18 -9 -63 -27 -101 -40 -39 -13 -94 -42 -124
-66 -71 -54 -343 -342 -343 -363 0 -16 113 -95 137 -95 8 0 31 13 51 29 49 38
182 81 252 81 50 0 136 13 260 40 25 5 68 9 95 10 31 0 102 17 185 44 74 24
187 54 250 66 63 12 165 35 225 51 101 28 128 30 325 36 135 4 260 1 335 -6
116 -11 124 -11 205 12 47 14 121 27 165 31 45 3 112 16 150 27 55 16 107 22
246 26 172 5 177 5 230 -20 31 -14 93 -35 140 -47 46 -13 100 -31 120 -41 43
-22 118 -37 230 -48 85 -9 110 -17 159 -52 14 -10 58 -23 100 -28 41 -6 107
-15 146 -22 91 -14 154 2 246 64 52 35 69 53 98 109 56 107 71 118 153 118 71
0 202 -37 292 -83 29 -14 55 -19 95 -17 30 2 100 3 155 4 l100 1 85 -53 c77
-48 89 -52 145 -52 33 0 101 -5 150 -11 113 -14 204 -59 276 -137 28 -31 62
-57 81 -63 18 -5 85 -9 149 -9 168 0 297 -44 361 -123 41 -50 45 -60 64 -157
8 -41 35 -133 60 -205 44 -124 56 -166 90 -315 16 -67 34 -112 86 -214 29 -57
30 -62 26 -170 -3 -83 -9 -121 -23 -149 -19 -38 -19 -39 1 -75 12 -21 28 -50
37 -67 24 -46 75 -251 82 -333 10 -103 30 -172 59 -201 22 -21 28 -23 50 -13
39 17 53 49 90 191 19 76 44 148 59 169 13 21 28 52 31 69 4 18 20 50 36 71
15 22 36 68 46 103 9 35 24 77 32 94 8 16 25 59 37 95 13 36 36 103 53 150 16
47 41 129 56 183 14 54 39 121 55 150 16 29 34 72 41 97 10 43 60 178 84 229
6 13 22 31 35 40 14 9 48 40 76 69 48 50 53 52 103 52 29 0 62 -5 73 -10 24
-13 59 4 113 55 21 20 54 44 73 52 42 17 159 29 197 19 45 -11 66 -76 107
-330 11 -71 28 -150 38 -175 10 -25 26 -80 36 -121 10 -41 26 -91 35 -110 10
-19 21 -51 25 -70 4 -19 18 -69 30 -110 42 -136 78 -264 103 -365 13 -55 37
-147 52 -205 16 -58 32 -127 35 -155 11 -81 85 -295 114 -327 l26 -29 24 25
c28 30 30 51 13 188 -17 137 -15 234 9 383 14 86 24 210 29 365 4 129 12 258
18 285 7 28 18 79 26 115 8 36 24 92 37 125 19 53 22 82 24 245 2 167 4 190
24 240 49 118 151 505 151 571 0 43 17 97 38 122 13 15 30 17 106 15 l91 -3
60 -117 c85 -167 141 -267 220 -392 37 -60 77 -132 87 -159 11 -28 28 -62 38
-76 9 -14 32 -55 49 -91 47 -98 84 -166 102 -187 9 -10 31 -49 49 -88 126
-272 133 -286 199 -404 43 -76 92 -166 132 -241 17 -30 48 -84 69 -120 22 -36
46 -78 54 -95 8 -16 28 -47 45 -69 17 -21 31 -44 31 -50 0 -18 78 -134 137
-204 29 -35 61 -78 70 -95 62 -122 392 -506 425 -495 7 3 23 31 34 64 12 32
28 74 36 92 14 32 13 38 -24 125 -63 147 -89 193 -151 261 -51 57 -59 72 -73
138 -9 40 -24 89 -34 108 -9 19 -23 58 -30 85 -7 28 -25 78 -41 112 -45 100
-80 222 -90 318 -6 50 -17 122 -25 160 -8 39 -14 104 -14 145 0 83 23 268 46
375 14 63 14 77 0 143 -18 86 -150 364 -190 401 -14 14 -26 29 -26 35 0 6 -12
29 -27 51 -15 22 -38 60 -50 85 -12 25 -32 56 -43 70 -42 52 -65 130 -64 218
0 104 8 113 102 120 l70 5 36 -49 c19 -27 49 -74 66 -104 92 -163 158 -255
236 -333 193 -189 269 -260 303 -281 20 -13 50 -40 67 -60 60 -75 178 -211
194 -226 10 -8 30 -34 44 -58 15 -23 43 -60 62 -82 20 -22 64 -75 97 -119 208
-268 296 -366 377 -420 30 -21 113 -76 184 -124 70 -48 132 -87 135 -87 9 0
136 -73 196 -111 133 -87 231 -132 255 -119 27 15 60 60 60 83 0 30 -192 215
-285 275 -44 28 -93 61 -110 75 -29 23 -82 57 -170 107 -77 44 -152 98 -168
122 -9 13 -50 59 -91 102 -42 43 -76 82 -76 87 0 4 -20 31 -45 60 -25 29 -45
57 -45 62 0 25 -127 212 -208 305 -51 59 -110 130 -131 157 -21 28 -76 91
-122 142 -48 51 -98 119 -117 155 -30 59 -33 72 -30 139 l3 74 73 3 c65 3 81
-1 136 -28 34 -16 71 -30 82 -30 11 0 36 -11 56 -25 19 -13 67 -36 104 -51 38
-15 78 -33 89 -40 11 -7 44 -19 73 -28 57 -17 231 -84 247 -95 9 -7 157 -55
460 -151 50 -16 107 -32 128 -35 20 -4 53 -20 72 -35 19 -15 52 -31 72 -35 20
-4 54 -15 74 -26 66 -33 393 -77 669 -89 159 -7 257 -7 280 -1 47 13 215 31
291 31 78 0 99 -13 209 -128 154 -161 220 -243 283 -349 63 -108 114 -172 257
-325 78 -84 151 -171 161 -193 14 -30 19 -64 19 -140 0 -96 11 -177 44 -330 9
-38 16 -82 16 -97 0 -14 13 -66 29 -115 16 -48 35 -113 41 -143 7 -30 21 -75
31 -100 10 -25 28 -85 40 -135 11 -49 25 -94 29 -100 4 -5 22 -48 38 -95 16
-47 46 -128 67 -180 20 -52 49 -142 64 -199 16 -56 34 -107 42 -112 8 -5 186
-9 396 -9 l382 0 6 48 c3 26 13 63 20 82 8 19 17 53 20 75 7 46 15 88 49 245
13 63 27 147 31 185 4 39 14 102 22 140 9 43 15 113 14 180 -2 155 28 259 133
465 19 36 39 83 46 105 7 22 22 51 34 65 68 79 88 115 126 232 34 102 44 153
60 298 23 212 46 369 60 405 16 42 59 89 127 139 34 25 69 59 78 76 22 43 87
86 140 95 34 5 61 19 103 53 117 95 221 148 320 162 39 5 94 18 124 29 29 10
71 23 93 29 23 7 63 26 90 44 28 17 74 47 103 66 29 19 72 41 95 49 23 8 46
18 52 23 5 4 39 16 75 26 36 9 117 43 180 74 63 32 165 79 225 105 61 26 124
57 140 70 17 12 50 32 75 45 24 12 56 30 70 40 14 9 54 36 90 60 36 24 77 54
92 66 15 12 44 28 65 35 21 6 57 25 80 40 23 16 46 29 52 29 5 0 78 55 162
122 83 68 163 132 178 142 14 11 52 39 83 62 83 61 208 197 264 287 27 43 63
102 81 130 18 28 77 99 132 157 55 58 111 121 125 140 15 19 49 67 77 105 29
39 66 86 84 105 47 51 123 166 156 235 36 77 86 164 108 190 34 38 92 144 107
194 8 28 35 81 60 118 25 37 57 88 70 113 13 25 34 57 45 72 20 25 22 37 20
167 -3 177 9 240 66 359 45 95 45 96 28 125 -16 27 -17 47 -11 174 4 93 16
186 31 259 14 64 25 146 25 189 0 129 -20 428 -32 470 -6 22 -18 76 -28 120
-31 146 -115 301 -233 435 -18 20 -52 65 -77 100 -25 35 -80 98 -122 141 -78
77 -78 78 -78 131 0 36 7 64 21 87 l20 34 157 -7 c153 -7 251 -25 282 -51 8
-7 40 -25 70 -40 30 -15 83 -51 117 -81 102 -86 327 -327 364 -389 19 -32 48
-81 66 -109 18 -28 41 -68 52 -88 12 -20 25 -39 31 -43 5 -3 41 -71 80 -150
81 -165 119 -219 205 -294 118 -103 189 -142 365 -204 250 -88 391 -151 450
-202 17 -14 84 -52 189 -107 41 -21 81 -43 88 -50 8 -6 40 -20 71 -31 30 -10
67 -27 80 -38 14 -10 30 -19 36 -19 6 0 43 -16 82 -35 39 -19 97 -40 130 -46
32 -6 73 -19 89 -29 17 -10 46 -21 65 -25 35 -7 128 -46 265 -110 39 -18 81
-36 95 -40 14 -4 56 -22 94 -41 38 -19 76 -34 85 -34 9 0 36 -12 61 -26 25
-15 72 -34 105 -44 125 -38 196 -66 265 -105 22 -12 141 -69 287 -137 24 -10
112 -41 195 -68 189 -59 354 -128 513 -212 61 -33 192 -86 255 -103 36 -10 70
-22 76 -27 6 -5 42 -19 80 -32 38 -13 97 -38 131 -55 34 -17 65 -31 68 -31 3
0 18 -8 33 -19 80 -55 169 -111 179 -111 5 0 27 -13 48 -30 20 -16 46 -32 58
-36 21 -6 95 -48 179 -101 21 -13 64 -33 95 -45 32 -11 67 -27 78 -34 33 -21
310 -71 545 -99 82 -9 144 -22 159 -32 13 -8 51 -22 83 -29 32 -8 78 -24 101
-36 23 -12 83 -32 132 -44 225 -57 342 -104 437 -176 51 -39 140 -77 201 -85
30 -5 43 -1 62 17 14 13 25 29 25 35 0 14 -111 98 -180 137 -79 45 -242 110
-314 124 -38 8 -78 20 -88 25 -11 6 -64 21 -118 34 -54 13 -117 33 -141 44
-83 37 -264 90 -362 106 -55 8 -119 20 -143 25 -24 6 -115 17 -204 25 -140 13
-169 18 -242 49 -94 38 -243 115 -333 169 -33 20 -85 48 -115 62 -30 15 -62
31 -70 36 -8 5 -40 21 -70 35 -30 15 -109 53 -175 84 -66 32 -145 65 -175 73
-30 8 -80 25 -110 37 -30 12 -93 38 -140 57 -47 18 -101 43 -120 54 -135 76
-339 163 -430 184 -41 10 -84 23 -95 30 -11 6 -46 22 -79 34 -32 12 -77 32
-100 45 -22 13 -52 27 -65 31 -13 4 -45 20 -71 35 -26 15 -58 31 -71 35 -13 4
-51 20 -84 35 -33 15 -105 44 -160 64 -55 21 -137 55 -182 77 -44 21 -85 39
-91 39 -5 0 -24 10 -43 23 -19 12 -50 29 -69 36 -67 26 -316 138 -385 174 -10
5 -49 20 -85 32 -147 51 -269 104 -335 145 -38 24 -95 55 -125 70 -37 18 -99
69 -182 149 -144 139 -198 177 -315 228 -50 21 -104 53 -132 79 -54 49 -230
147 -306 171 -99 31 -205 126 -312 282 -18 25 -41 57 -51 71 -11 14 -39 54
-64 90 -60 87 -417 447 -495 500 -35 23 -100 61 -145 84 -46 24 -101 53 -123
65 -21 11 -46 21 -55 21 -8 0 -29 8 -45 18 -42 26 -114 42 -230 51 -100 8
-137 20 -198 65 -22 16 -49 22 -113 27 -95 6 -124 24 -145 88 -6 20 -22 60
-36 90 -13 29 -32 87 -43 130 -10 42 -28 101 -39 131 -23 65 -41 255 -41 438
0 167 -27 582 -39 615 -6 14 -15 121 -21 239 -6 117 -15 263 -21 323 -7 65
-10 240 -8 425 4 315 4 315 29 356 37 61 78 121 131 189 25 33 54 85 64 115
17 53 124 224 212 340 47 62 97 149 184 318 36 69 85 144 128 196 39 46 85
106 102 133 18 26 58 75 88 109 31 33 76 85 100 115 135 167 269 311 307 330
41 21 104 22 207 4 53 -10 132 25 229 101 56 44 100 69 147 85 141 46 273 170
350 328 50 103 61 111 153 111 122 0 193 31 290 127 66 65 77 82 83 120 3 24
15 69 27 101 14 42 22 99 28 212 5 85 13 169 19 187 12 40 92 154 132 188 19
15 43 25 62 25 70 0 201 30 238 54 69 46 109 88 145 153 31 55 37 74 37 127 0
70 -22 116 -94 204 -36 43 -39 51 -39 110 0 67 8 91 45 132 12 14 37 52 55 85
45 81 45 137 0 225 -28 54 -34 79 -38 147 -5 97 -2 115 36 173 20 31 32 64 36
104 4 33 20 112 36 175 16 64 32 145 35 181 4 36 17 103 30 150 13 47 31 121
41 164 16 76 67 189 103 231 10 11 26 40 35 65 10 25 24 52 31 60 7 8 23 35
35 60 13 24 35 60 50 80 14 19 46 61 71 93 67 88 136 188 160 232 12 22 36 60
53 85 39 54 78 145 96 220 7 30 26 76 42 103 15 26 28 51 28 55 0 5 12 24 26
43 14 19 36 57 49 85 12 28 28 55 34 58 30 19 109 214 167 411 9 33 28 81 41
107 13 26 29 71 37 100 8 29 19 64 24 78 29 68 45 248 47 525 1 185 5 292 13
315 20 58 14 185 -12 285 -27 105 -88 246 -125 292 -58 71 -90 120 -101 159
-7 23 -23 55 -36 70 l-23 29 -38 -37 -37 -38 13 -42 c17 -53 26 -240 13 -277
-6 -17 -6 -150 0 -356 9 -286 8 -350 -7 -480 -17 -155 -44 -250 -89 -317 -12
-18 -31 -49 -42 -68 -12 -19 -45 -73 -74 -120 -29 -47 -63 -107 -77 -135 -44
-90 -78 -150 -100 -182 -13 -17 -23 -34 -23 -38 0 -3 -16 -31 -35 -61 -19 -30
-35 -58 -35 -62 0 -4 -12 -25 -26 -45 -14 -21 -39 -70 -55 -109 -16 -38 -48
-100 -73 -136 -24 -37 -47 -77 -50 -89 -7 -21 -46 -82 -164 -254 -29 -42 -52
-79 -52 -83 0 -4 -13 -26 -28 -49 -41 -61 -171 -330 -199 -412 -38 -111 -63
-232 -69 -335 -4 -74 -14 -121 -44 -210 -21 -63 -49 -150 -61 -192 -18 -64
-31 -88 -74 -135 -58 -64 -79 -101 -89 -153 -9 -54 -66 -179 -107 -240 -78
-114 -126 -151 -275 -214 l-110 -47 -105 4 c-57 3 -121 8 -141 12 -30 6 -50 1
-110 -28 -40 -19 -83 -38 -95 -41 -25 -8 -93 -82 -93 -102 0 -6 -10 -33 -22
-60 -16 -37 -23 -79 -29 -171 -6 -102 -13 -140 -42 -225 -45 -130 -56 -223
-67 -534 -7 -235 -9 -255 -34 -324 -15 -41 -35 -88 -45 -105 -10 -16 -27 -64
-36 -105 -27 -113 -193 -446 -277 -558 -24 -31 -66 -102 -93 -157 -53 -107
-144 -215 -253 -299 -30 -23 -70 -53 -89 -69 -49 -37 -343 -316 -427 -404 -68
-72 -70 -73 -120 -73 -67 0 -163 -55 -291 -169 -28 -25 -75 -64 -104 -86 -29
-22 -70 -64 -93 -94 -22 -29 -92 -105 -154 -169 -63 -63 -133 -140 -156 -171
-67 -87 -244 -302 -286 -346 -21 -22 -68 -74 -104 -115 -45 -51 -79 -80 -105
-89 -21 -8 -87 -38 -148 -66 -60 -29 -141 -64 -180 -78 -38 -14 -101 -37 -138
-51 -81 -30 -139 -78 -207 -172 -27 -38 -65 -87 -84 -110 -19 -23 -64 -90
-100 -150 -76 -127 -133 -207 -192 -273 -39 -43 -79 -104 -144 -216 -14 -25
-35 -55 -47 -67 -11 -13 -26 -34 -33 -47 -7 -14 -32 -45 -55 -70 -23 -25 -53
-63 -67 -83 -59 -89 -176 -192 -318 -282 -73 -45 -95 -61 -172 -119 -21 -15
-59 -32 -90 -37 -29 -6 -127 -23 -218 -40 -91 -16 -206 -41 -256 -54 -51 -14
-136 -30 -190 -36 -94 -10 -202 -31 -222 -44 -5 -3 -50 -14 -101 -26 -51 -11
-103 -27 -116 -36 -18 -12 -67 -19 -172 -26 -144 -9 -332 -28 -483 -48 -41 -5
-158 -14 -260 -20 -102 -6 -213 -16 -248 -22 -34 -5 -111 -9 -170 -7 l-107 4
-115 59 c-63 32 -119 62 -124 67 -6 5 -16 9 -23 9 -7 0 -53 16 -101 36 -48 20
-120 48 -161 64 -106 42 -146 72 -160 123 -7 23 -16 146 -21 272 -6 127 -14
248 -20 270 -5 22 -10 83 -10 136 0 113 8 125 103 154 32 10 87 38 123 62 133
89 159 99 286 113 79 9 159 11 245 6 70 -5 133 -8 138 -7 6 1 116 5 245 9 130
4 241 11 247 15 6 4 89 18 184 31 161 23 180 28 254 66 44 23 103 59 130 80
70 53 88 61 163 71 66 10 237 58 302 86 99 42 163 107 205 207 17 40 119 201
133 210 6 3 18 29 28 57 13 36 32 62 60 85 49 40 148 153 141 160 -3 3 -27 -9
-55 -26 -75 -46 -143 -63 -271 -66 -108 -3 -115 -4 -142 -30 -18 -17 -38 -56
-54 -104 -14 -43 -36 -86 -48 -97 -83 -74 -272 -139 -477 -163 -47 -6 -141
-21 -210 -35 -69 -13 -154 -27 -190 -30 -36 -4 -105 -16 -155 -26 -67 -15
-161 -22 -370 -29 -154 -6 -309 -14 -345 -20 -36 -5 -114 -10 -175 -10 -126 0
-135 4 -226 91 -77 75 -99 121 -99 206 0 57 5 79 33 133 75 148 157 240 216
240 13 0 47 11 76 24 28 14 87 30 131 35 43 6 101 17 128 26 64 19 130 19 183
-1 l42 -16 50 31 c57 37 127 51 252 51 49 0 126 9 180 21 52 11 135 24 185 29
51 5 138 20 195 34 57 14 142 32 188 40 51 10 99 26 120 40 20 13 52 29 71 37
19 7 56 28 83 46 27 18 55 33 63 33 18 0 113 53 175 97 26 18 50 33 54 33 4 0
40 28 79 63 39 35 89 76 110 93 l39 29 176 4 c105 2 209 -2 258 -9 72 -10 86
-16 108 -42 20 -24 25 -40 25 -87 0 -51 -4 -64 -40 -112 -21 -30 -57 -88 -79
-129 l-39 -76 111 108 c62 60 130 120 152 135 104 69 123 81 172 106 29 16 85
35 125 43 117 24 146 56 194 216 l17 58 -26 52 c-15 29 -29 70 -32 91 -9 54
-56 97 -146 130 -42 15 -89 27 -105 27 -16 0 -85 -18 -154 -40 -69 -23 -157
-45 -196 -50 -75 -10 -175 -42 -192 -63 -6 -7 -12 -23 -14 -37 -2 -18 -15 -31
-47 -47 -25 -13 -57 -34 -71 -48 -34 -32 -130 -78 -211 -101 -35 -10 -98 -41
-148 -73 l-86 -56 -165 0 c-155 0 -170 2 -242 28 -126 45 -121 31 12 -36 l125
-62 3 -89 c3 -100 -7 -124 -60 -152 -27 -14 -51 -16 -148 -10 -63 3 -136 9
-162 12 -45 6 -48 5 -100 -44 -33 -31 -78 -60 -118 -77 -36 -15 -72 -33 -80
-40 -32 -29 -76 -38 -355 -76 -38 -6 -116 -13 -173 -16 -95 -5 -106 -4 -133
16 -28 20 -29 21 -29 3 0 -11 -9 -31 -21 -46 -18 -23 -28 -26 -77 -26 -34 1
-65 7 -76 15 -13 10 -44 15 -89 15 -38 0 -115 6 -171 14 -55 8 -132 18 -171
21 -74 7 -140 32 -167 62 -39 44 -52 208 -22 283 15 38 25 45 120 91 86 42
120 53 206 65 181 27 275 28 339 6 61 -21 69 -20 149 33 19 13 55 29 80 36 25
7 56 20 70 29 46 31 116 43 188 35 37 -5 153 -7 257 -6 166 3 365 -8 460 -25
64 -11 -72 44 -158 64 -74 17 -97 28 -150 70 -35 27 -74 55 -87 62 -34 18
-149 5 -227 -26 -101 -41 -211 -56 -337 -49 -59 4 -240 10 -400 14 l-293 7
-94 46 c-52 25 -123 56 -159 69 -44 16 -79 37 -107 66 -41 41 -43 45 -43 104
0 58 2 64 38 99 46 46 118 70 212 70 87 0 299 -34 374 -60 72 -25 109 -25 161
-1 39 17 39 18 15 25 -14 4 -49 19 -78 33 -38 19 -80 28 -150 35 -63 6 -120
18 -162 35 -99 39 -186 42 -280 9 -41 -15 -106 -33 -145 -40 -38 -8 -95 -21
-125 -31 -30 -9 -85 -25 -123 -36 -37 -10 -97 -33 -134 -51 -51 -24 -88 -33
-150 -38 -65 -5 -96 -14 -155 -43 -190 -93 -174 -88 -350 -98 -179 -10 -236
-19 -338 -49 -60 -18 -75 -28 -126 -83 -54 -58 -126 -148 -165 -207 -16 -24
-21 -25 -125 -25 -90 0 -117 4 -155 21 -64 30 -119 81 -144 136 -12 26 -45 69
-73 95 -40 38 -54 60 -67 106 -12 41 -28 68 -55 95 -24 23 -47 59 -61 97 -12
33 -34 76 -49 95 -15 19 -45 71 -68 114 -41 77 -42 83 -42 172 0 110 5 124 63
196 40 49 43 57 31 70 -8 8 -28 50 -43 94 -16 43 -38 102 -49 129 -11 28 -33
91 -48 140 -15 50 -38 113 -50 141 -13 28 -28 82 -34 120 -6 38 -25 107 -41
154 -17 47 -37 118 -45 159 -7 40 -22 88 -33 107 -11 19 -25 53 -32 76 -6 24
-23 70 -39 103 -69 150 -71 164 -43 343 14 90 14 119 4 196 -7 50 -20 105 -30
121 -9 17 -28 68 -41 115 -13 47 -27 90 -31 95 -4 6 -18 46 -32 90 -30 95 -93
223 -139 282 -18 23 -52 65 -74 95 -52 66 -145 154 -251 236 -57 44 -95 83
-122 125 -21 34 -56 78 -76 97 -20 19 -58 62 -83 95 -47 62 -146 181 -185 225
-23 26 -99 125 -130 170 -9 14 -37 54 -61 90 -24 36 -105 130 -180 210 -75 80
-143 156 -150 170 -97 183 -137 266 -155 320 -22 69 -116 204 -229 330 -52 58
-61 73 -75 139 -12 52 -17 120 -17 231 0 138 3 165 21 206 11 27 26 81 34 121
9 46 33 112 68 182 30 61 61 134 67 163 7 28 24 79 37 112 13 34 32 112 43
175 30 175 52 197 190 188 65 -4 108 -13 162 -35 141 -57 214 -72 313 -66 112
7 135 -6 199 -103 46 -71 134 -167 223 -246 36 -31 72 -52 115 -66 35 -10 99
-34 143 -51 44 -18 108 -43 143 -56 34 -13 80 -33 102 -44 22 -11 63 -25 92
-31 29 -6 78 -22 109 -35 31 -12 98 -32 150 -43 52 -11 118 -27 148 -35 30 -9
102 -17 161 -18 122 -3 147 6 179 71 25 47 32 50 149 62 109 10 126 20 267
153 l90 85 -72 1 c-85 0 -93 8 -93 93 0 81 34 181 79 230 88 98 175 260 223
414 40 131 48 137 187 131 81 -3 106 -8 161 -34 76 -36 167 -115 186 -161 8
-18 14 -61 14 -96 l0 -64 -75 -71 c-41 -39 -75 -75 -75 -80 0 -5 8 -17 19 -26
21 -19 57 -14 106 16 34 20 136 25 181 8 26 -10 26 -11 22 -95 -3 -60 -9 -90
-21 -103 -9 -10 -17 -23 -17 -29 0 -15 112 -66 205 -94 l80 -23 130 -134 c72
-73 134 -141 140 -150 5 -9 9 -69 9 -132 -1 -124 -10 -161 -60 -241 -115 -182
-173 -267 -240 -354 -29 -38 -59 -86 -65 -105 -6 -19 -15 -40 -20 -46 -16 -20
-31 -157 -24 -219 3 -35 18 -86 33 -116 l26 -54 2 -330 c0 -237 4 -338 13
-360 41 -99 83 -167 142 -230 77 -82 133 -160 149 -211 20 -59 8 -199 -21
-259 -27 -56 -81 -93 -137 -94 -96 -3 -117 -16 -279 -176 -84 -84 -179 -170
-210 -191 -146 -100 -241 -398 -184 -573 12 -35 21 -71 21 -80 2 -57 87 -198
154 -253 111 -92 265 -160 425 -187 69 -12 132 -27 140 -35 17 -15 119 -51
262 -91 147 -42 262 -120 347 -235 14 -19 36 -46 48 -60 12 -14 25 -38 28 -54
9 -37 101 -123 141 -132 49 -11 106 -44 166 -95 43 -37 59 -46 67 -36 14 18
32 110 32 168 0 76 18 90 240 192 30 14 71 30 90 35 20 5 75 35 123 66 48 31
92 56 97 56 4 0 30 16 56 36 26 20 67 45 91 56 23 10 45 23 48 29 4 5 32 23
63 40 56 29 101 58 152 97 36 27 192 102 213 102 28 0 167 76 167 91 0 4 -21
12 -47 18 -27 7 -71 23 -100 37 -53 24 -98 31 -107 15 -10 -16 -141 -100 -189
-121 -30 -14 -77 -51 -130 -105 -113 -115 -194 -174 -269 -199 -79 -26 -551
-40 -703 -22 -89 11 -195 49 -251 89 -23 18 -69 48 -101 67 -32 19 -117 94
-190 167 l-132 133 -45 -30 c-136 -92 -217 -93 -403 -3 -57 27 -110 95 -138
174 -19 53 -19 214 -1 294 17 69 45 99 109 115 23 6 75 26 115 46 72 35 75 36
180 32 74 -2 117 -8 139 -20 39 -19 43 -15 68 62 10 30 25 71 35 90 9 19 22
61 29 92 16 76 73 145 179 215 51 34 87 66 93 82 6 14 26 59 45 99 20 41 42
107 49 147 8 40 22 100 31 134 19 67 14 124 -21 261 -13 51 -16 93 -12 200 3
74 10 158 15 185 5 28 20 104 33 170 20 101 24 150 23 310 0 162 -4 211 -26
335 -26 142 -27 156 -30 615 -3 422 -1 475 14 520 9 28 25 91 34 140 9 50 23
106 31 125 22 52 32 88 43 159 6 34 21 84 34 110 67 132 88 203 97 326 11 158
14 171 48 224 59 92 54 119 -36 212 -54 56 -67 77 -88 140 -13 41 -30 92 -39
114 -9 25 -15 74 -16 131 0 81 3 95 25 128 l25 37 -21 29 c-14 19 -24 51 -28
92 l-7 63 -46 -72 c-27 -40 -54 -98 -62 -131 -28 -105 -76 -213 -119 -262 -16
-19 -53 -50 -81 -67 -50 -32 -53 -33 -172 -33 -78 0 -135 5 -160 14 -22 7 -64
17 -94 21 -30 4 -88 20 -128 36 -40 16 -81 29 -92 29 -11 0 -61 14 -112 31
-63 21 -125 34 -192 39 -116 9 -149 27 -154 81 -5 62 -41 189 -61 217 -56 78
-108 101 -255 112 -127 10 -842 -5 -981 -21 -49 -5 -264 -11 -476 -14 -412 -4
-587 -16 -685 -47 -47 -14 -88 -18 -173 -17 l-112 1 -41 -32 c-36 -29 -50 -34
-115 -38 -72 -5 -75 -6 -99 -41 -118 -174 -173 -214 -285 -209 -50 2 -64 7
-73 23 -6 11 -23 41 -39 66 -15 26 -38 78 -51 115 -26 75 -66 175 -95 239 -37
80 -46 153 -46 365 0 233 7 266 82 430 36 78 57 109 122 175 42 44 93 105 112
135 20 30 60 91 89 135 29 44 77 116 106 160 91 138 121 173 199 225 42 28
106 79 143 114 37 34 86 77 110 95 43 34 168 191 210 264 13 22 36 56 53 74
16 19 29 39 29 44 0 6 12 34 26 63 81 158 107 241 134 421 25 164 25 233 1
337 -42 176 -59 619 -32 813 7 56 23 115 41 155 17 36 39 97 51 135 12 39 29
81 39 95 9 14 20 35 24 47 4 12 26 40 49 62 40 40 44 41 108 41 63 0 70 2 125
44 33 24 106 88 163 141 58 53 125 113 150 133 25 20 65 54 88 75 l42 40 81
-6 82 -5 52 -53 c28 -29 71 -65 95 -81 42 -26 46 -27 63 -11 24 21 23 30 -8
70 -14 18 -35 55 -46 81 -11 26 -29 59 -39 73 -10 15 -26 56 -34 91 -8 36 -22
82 -31 103 -17 41 -16 103 4 338 12 142 24 161 110 165 56 3 62 1 77 -22 14
-21 16 -44 10 -158 -6 -131 -6 -135 30 -262 20 -74 45 -143 59 -160 13 -17 36
-55 52 -85 16 -29 37 -68 46 -85 9 -17 17 -52 18 -78 l0 -48 50 0 c69 0 112
-25 213 -125 47 -47 90 -85 96 -85 6 0 30 -17 54 -38 52 -46 152 -108 192
-118 17 -4 50 -17 75 -29 25 -13 72 -28 105 -35 33 -6 93 -20 134 -32 l73 -20
67 34 c46 23 74 45 93 73 14 22 59 67 98 100 l71 60 -54 5 c-30 3 -61 11 -70
19 -14 11 -30 11 -95 1 -89 -15 -241 -1 -294 26 -38 20 -68 70 -68 116 l0 36
-92 -5 -93 -5 -37 38 c-28 30 -42 58 -59 119 -12 44 -33 114 -47 155 -46 143
-40 316 15 428 32 63 127 151 260 239 45 29 110 83 145 119 73 76 253 224 271
224 8 0 26 14 43 31 40 42 108 87 167 110 28 11 68 31 91 44 23 13 59 27 81
31 22 3 72 19 110 35 39 15 90 30 115 34 28 4 71 22 115 50 39 25 122 70 185
101 109 54 260 149 260 164 0 3 19 17 43 30 23 13 79 54 123 91 63 52 92 86
127 146 35 58 65 94 122 142 102 86 135 101 213 101 63 0 65 -1 103 -42 22
-24 58 -74 81 -113 44 -74 70 -109 156 -208 60 -70 235 -192 289 -202 18 -3
55 -17 81 -30 48 -24 188 -57 297 -70 105 -13 225 -43 308 -77 65 -26 97 -47
156 -103 41 -38 90 -95 109 -125 20 -30 49 -73 67 -95 90 -115 177 -306 239
-520 13 -44 28 -90 34 -102 7 -12 17 -45 23 -75 6 -29 31 -125 56 -213 50
-175 98 -280 123 -268 8 4 44 9 80 11 l65 3 85 -83 c97 -96 174 -150 312 -219
120 -61 147 -63 84 -8 -45 40 -46 42 -46 99 0 40 5 64 18 81 18 23 18 25 2 52
-14 22 -19 25 -23 13 -5 -13 -24 -16 -94 -16 -78 0 -90 3 -112 24 -15 13 -48
31 -76 41 -27 10 -57 24 -65 30 -8 6 -35 22 -60 34 -57 29 -82 58 -126 146
-34 69 -34 70 -34 205 0 168 7 184 73 188 46 3 47 4 46 35 0 18 -4 55 -9 82
-5 38 -8 42 -9 18 0 -17 -5 -43 -11 -57 -9 -24 -14 -26 -68 -26 l-59 0 -13 43
c-7 23 -26 71 -41 107 -16 39 -32 101 -38 155 -6 50 -18 119 -27 155 -20 87
-28 163 -20 196 7 26 7 27 86 22 110 -6 112 -9 148 -163 10 -40 10 -40 11 21
1 81 10 87 108 82 65 -3 94 -11 173 -46 102 -45 190 -111 190 -143 0 -54 34
-100 158 -214 142 -130 213 -209 243 -274 38 -80 86 -145 141 -193 58 -49 162
-197 218 -307 18 -37 40 -105 51 -158 10 -51 25 -106 34 -122 8 -16 24 -64 36
-108 12 -43 44 -132 71 -198 27 -66 56 -138 63 -160 7 -22 27 -70 44 -107 17
-37 31 -72 31 -78 0 -6 16 -33 35 -61 19 -28 35 -57 35 -64 0 -30 86 -140 197
-251 108 -109 126 -124 176 -138 51 -15 215 -94 244 -118 19 -16 169 -67 288
-98 143 -38 253 -78 290 -106 17 -12 46 -29 65 -36 79 -33 173 -180 195 -305
8 -43 14 -123 15 -178 0 -92 3 -108 36 -190 21 -49 45 -103 54 -120 9 -16 25
-55 35 -85 9 -30 26 -70 36 -87 10 -18 23 -52 29 -75 7 -24 22 -56 34 -73 12
-16 30 -52 41 -79 14 -39 46 -78 154 -186 88 -89 153 -145 184 -160 27 -14 56
-38 68 -57 11 -18 38 -104 60 -190 43 -172 72 -251 123 -328 18 -27 48 -77 67
-109 19 -33 70 -98 115 -146 44 -47 93 -108 109 -135 15 -28 53 -77 84 -110
90 -95 120 -140 141 -207 11 -35 40 -92 64 -128 25 -36 57 -87 70 -115 14 -27
60 -88 102 -135 111 -124 135 -162 151 -244 27 -140 43 -284 49 -470 8 -207
-1 -167 110 -481 31 -89 68 -267 94 -454 11 -80 25 -171 30 -201 6 -30 14
-125 19 -211 7 -134 12 -164 33 -211 29 -62 106 -134 179 -165 56 -25 90 -70
100 -135 10 -62 40 -102 114 -152 44 -31 60 -37 73 -29 25 15 88 138 101 198
6 28 27 76 46 105 24 37 36 69 40 109 3 31 8 68 11 82 7 37 62 85 107 93 22 4
65 27 99 51 50 37 162 85 198 85 5 0 53 27 108 60 110 67 132 92 178 206 39
94 39 191 2 284 -14 36 -31 97 -37 136 -6 39 -21 95 -34 125 -14 30 -32 74
-41 99 -8 25 -32 70 -52 100 -48 73 -58 94 -88 180 -29 81 -36 190 -13 208 6
5 102 13 212 17 160 6 208 11 240 25 22 10 65 29 95 43 65 29 109 70 88 83
-19 13 -188 39 -417 64 -51 6 -113 19 -137 30 l-44 19 0 63 c0 73 25 124 65
134 48 12 208 -1 243 -20 52 -27 100 -23 165 14 72 40 131 107 152 171 9 27
25 54 36 60 13 6 97 8 251 3 l232 -7 37 43 37 43 -29 24 c-26 23 -29 31 -29
87 0 75 6 80 125 101 44 7 98 20 120 29 22 8 48 15 59 16 28 0 157 74 190 109
l30 31 -100 0 c-60 0 -104 4 -111 11 -8 8 -24 7 -60 -5 -75 -25 -142 -28 -373
-18 l-215 9 -92 39 -93 39 0 51 c0 32 5 56 14 63 8 7 75 16 153 21 88 6 173
19 236 35 54 14 116 25 139 25 50 0 157 28 178 46 9 7 42 25 75 40 32 15 78
40 101 56 41 28 184 174 184 189 0 4 50 44 111 89 116 87 228 185 219 193 -3
3 -34 -8 -70 -25 -56 -25 -74 -29 -125 -25 -51 4 -65 1 -95 -19 -25 -16 -56
-26 -100 -30 -36 -3 -86 -14 -112 -25 -57 -23 -78 -23 -243 -3 -83 10 -136 22
-147 32 -14 12 -18 31 -18 87 l0 72 68 70 c198 206 263 310 309 498 11 43 37
103 70 159 57 97 71 142 54 174 -17 31 -13 138 5 175 9 18 29 46 45 63 17 18
32 47 36 69 7 44 17 44 -132 0 -75 -23 -103 -26 -170 -22 -70 4 -92 10 -175
51 -52 26 -120 62 -150 81 -30 19 -75 44 -100 56 -122 56 -148 68 -191 83 -54
19 -153 90 -192 137 -45 53 -116 168 -149 239 -84 179 -140 282 -177 325 -23
26 -75 107 -148 229 -10 16 -58 79 -107 140 -100 126 -136 196 -136 267 0 40
4 51 25 66 75 53 74 43 16 104 -51 53 -52 55 -49 109 l3 55 81 3 c70 2 88 -1
130 -22 27 -14 74 -28 104 -31 30 -4 91 -16 135 -27 141 -35 291 -13 408 62
53 33 63 55 20 43 -43 -12 -297 -9 -413 5 -139 16 -198 33 -273 78 -76 46 -87
59 -87 101 0 26 -9 42 -37 69 -66 62 -122 84 -209 84 -66 0 -83 4 -121 28 -69
42 -213 177 -293 275 -39 48 -75 87 -80 87 -4 0 -23 24 -41 53 -57 93 -201
257 -225 257 -4 0 -23 -12 -41 -26 l-35 -26 26 -27 c22 -23 26 -36 26 -88 0
-88 -3 -93 -62 -93 -55 0 -81 15 -150 88 -46 47 -56 50 -89 23 l-23 -18 32
-49 c66 -101 109 -160 177 -238 69 -79 107 -118 254 -260 l71 -69 0 -67 c0
-88 -7 -94 -110 -88 -72 4 -84 8 -113 35 -18 16 -45 38 -62 48 -68 41 -128
100 -152 149 -77 158 -125 214 -278 318 -167 113 -317 161 -383 123 -26 -16
-71 -88 -135 -215 -11 -22 -20 -25 -79 -28 -73 -3 -124 15 -163 58 -30 33 -69
50 -114 50 -78 0 -128 21 -199 84 -70 62 -201 131 -231 121 -26 -8 -78 -67
-64 -72 6 -2 32 -20 57 -39 25 -19 49 -34 55 -34 5 0 35 -23 65 -51 l56 -51 0
-62 c0 -90 -6 -102 -69 -140 -88 -54 -129 -102 -133 -156 l-3 -45 -71 -3 -72
-3 -78 55 c-44 30 -115 77 -159 104 l-80 48 -94 -4 -93 -5 -126 132 c-70 72
-150 148 -178 168 -28 21 -173 151 -321 288 -148 138 -311 284 -362 325 -51
41 -123 100 -160 131 -67 57 -134 94 -234 128 -50 17 -57 18 -77 4 -13 -9 -54
-17 -105 -20 -95 -6 -82 -13 -265 135 -57 46 -125 94 -151 107 -26 14 -50 29
-54 35 -4 6 -28 21 -54 34 -52 27 -68 53 -78 125 -3 25 -10 51 -14 57 -5 6
-46 14 -92 18 -94 8 -118 21 -207 111 l-54 55 -78 0 -78 0 0 65 c0 74 16 119
54 154 14 14 26 30 26 37 0 27 51 54 102 54 54 0 213 -39 290 -71 50 -20 223
-59 265 -59 13 0 40 12 59 26 37 29 64 98 64 166 0 22 7 52 15 68 14 28 19 30
73 30 76 0 106 -10 176 -56 32 -22 69 -46 82 -54 12 -8 47 -32 77 -52 31 -21
60 -38 65 -38 5 0 15 -7 22 -16 12 -14 99 -67 192 -119 75 -41 164 -99 198
-129 73 -66 80 -70 80 -54 0 8 -27 43 -59 77 -51 52 -61 68 -66 109 -10 82
-23 116 -65 166 -65 78 -370 364 -430 403 -30 20 -71 50 -91 67 -20 17 -72 48
-115 69 -260 127 -316 152 -397 173 -33 8 -82 26 -108 40 -27 13 -58 24 -70
24 -12 0 -41 11 -63 24 -23 13 -76 33 -119 45 -134 37 -141 41 -177 117 -17
37 -49 93 -71 125 -35 51 -39 65 -39 117 0 88 -2 87 224 86 168 0 198 -3 251
-21 33 -12 61 -20 62 -19 2 1 -26 26 -62 55 l-65 53 0 87 c0 54 5 92 12 99 8
8 59 12 163 12 125 0 160 -3 207 -20 31 -11 83 -22 115 -26 97 -9 140 -30 165
-77 21 -43 71 -92 138 -137 21 -14 71 -50 111 -81 61 -46 250 -149 274 -149 4
0 20 -9 36 -21 16 -11 34 -17 39 -14 6 4 -29 46 -80 98 -90 91 -90 91 -90 142
0 29 9 79 20 113 20 62 20 62 1 101 -11 22 -32 48 -46 60 -15 11 -40 37 -56
57 -24 30 -29 46 -29 88 0 46 -4 56 -32 83 -30 28 -166 99 -229 118 -13 4 -46
18 -74 31 -29 13 -104 32 -175 44 -69 11 -154 27 -188 35 -35 7 -125 16 -200
20 -218 10 -321 31 -517 105 -27 11 -90 24 -140 31 -239 30 -208 19 -290 98
-40 39 -85 75 -101 81 -15 6 -78 16 -138 21 -61 6 -117 15 -123 21 -8 6 -13
34 -13 69 0 68 9 77 105 105 33 9 126 39 207 65 81 27 159 49 174 49 15 0 58
18 95 41 64 38 118 57 279 96 70 17 100 36 100 63 0 22 -31 50 -57 50 -19 0
-162 23 -225 36 -27 5 -28 8 -28 64 l0 58 53 26 c47 23 88 32 251 54 56 8 71
27 29 39 -43 12 -517 8 -698 -6 -88 -6 -245 -25 -349 -41 -105 -17 -197 -30
-206 -30 -10 0 -62 -25 -117 -55 -56 -30 -123 -60 -149 -66 -27 -7 -60 -17
-74 -24 -14 -7 -59 -20 -100 -30 -101 -24 -116 -33 -184 -110 -84 -96 -134
-125 -211 -125 -86 0 -115 11 -197 75 -77 60 -134 90 -258 134 -41 15 -115 53
-165 85 -144 92 -312 184 -378 207 -34 11 -71 26 -82 31 -11 6 -56 24 -100 40
-44 16 -129 48 -190 70 -129 47 -181 61 -290 78 -44 6 -84 16 -90 21 -12 12
-1072 12 -1080 0z m-488 -283 c18 -17 23 -32 23 -75 0 -79 -17 -87 -194 -91
-98 -2 -155 1 -186 10 l-45 14 -3 53 c-2 30 2 59 9 67 23 28 101 43 238 43
125 1 136 -1 158 -21z m1011 -74 c3 -57 1 -62 -20 -68 -30 -8 -142 -8 -162 0
-20 8 -22 104 -4 122 9 9 40 12 98 10 l85 -3 3 -61z m-160 -287 l3 -58 -93 3
-93 3 -3 58 -3 58 93 -3 93 -3 3 -58z m4029 -1642 c64 -14 123 -31 131 -37 18
-15 12 -149 -8 -173 -16 -19 -189 -22 -223 -3 -12 7 -58 24 -102 39 l-80 26
-3 74 c-2 61 0 76 14 86 28 21 144 15 271 -12z m-267 -304 c22 -6 25 -13 28
-60 4 -76 -3 -81 -114 -81 -51 0 -104 4 -118 10 -24 9 -26 15 -26 65 0 48 3
57 23 65 26 10 170 11 207 1z m860 -85 c30 -8 84 -19 118 -26 35 -6 99 -27
142 -46 43 -19 81 -34 85 -34 4 0 33 -13 64 -28 31 -16 70 -32 86 -36 97 -22
125 -59 125 -163 0 -100 -8 -107 -108 -100 -62 4 -92 11 -125 30 -23 14 -74
34 -113 46 -39 11 -92 32 -118 46 -26 14 -79 32 -119 41 -40 8 -92 23 -117 33
-25 10 -78 26 -118 36 -58 14 -78 23 -94 46 -19 25 -28 29 -73 29 -28 0 -56 5
-63 12 -13 13 -17 110 -5 121 13 14 377 8 433 -7z m-5552 -2073 c1 -45 -1 -97
-6 -115 -8 -32 -10 -33 -62 -36 -36 -2 -56 1 -61 10 -10 15 -12 189 -3 213 5
13 19 15 68 13 l61 -3 3 -82z m13172 -3458 l0 -65 -30 0 c-27 0 -30 -3 -30
-34 0 -42 -59 -105 -145 -156 -84 -49 -112 -58 -180 -59 -56 -1 -62 -3 -88
-36 -73 -92 -345 -100 -434 -13 -29 28 -33 38 -33 85 0 74 26 98 114 106 74 7
142 39 200 93 l39 36 126 -2 c199 -5 216 -3 249 25 17 14 42 25 56 25 22 0 26
4 26 30 l0 30 65 0 65 0 0 -65z m-12928 -2860 c21 -14 42 -34 48 -45 6 -11 41
-35 78 -54 37 -19 81 -41 98 -50 16 -8 65 -21 107 -27 95 -14 119 -31 159
-117 37 -78 52 -209 27 -238 -19 -23 -154 -14 -229 15 -30 12 -93 26 -140 32
-47 5 -109 16 -139 25 -46 13 -67 14 -140 4 -108 -15 -312 -10 -333 8 -28 23
-151 42 -273 42 -139 0 -341 -17 -368 -31 -32 -18 -170 -41 -267 -46 -113 -5
-120 0 -120 90 0 48 5 66 24 92 23 30 30 33 108 40 46 5 121 9 168 10 108 2
153 11 216 40 36 17 82 27 152 34 107 10 122 15 225 85 68 46 84 51 192 60 33
3 90 16 125 30 51 20 84 25 155 26 81 0 94 -3 127 -25z m-482 -714 c5 -11 10
-46 10 -79 0 -50 -5 -66 -30 -100 l-30 -42 -83 0 c-77 0 -87 3 -131 31 l-47
31 3 61 c3 50 7 63 28 79 32 23 95 36 192 37 67 1 79 -2 88 -18z m-716 -213
c18 -7 39 -38 66 -95 24 -48 67 -113 103 -156 75 -86 89 -117 85 -188 l-3 -54
-54 -3 c-30 -2 -102 6 -160 17 -58 11 -140 23 -181 26 -97 9 -259 69 -336 125
l-56 42 4 76 c4 88 10 95 125 144 156 67 341 97 407 66z m2147 -7790 c19 -6
61 -32 94 -58 33 -25 77 -56 97 -69 58 -35 78 -76 78 -160 0 -62 -3 -75 -24
-96 -29 -29 -78 -39 -164 -33 -108 8 -177 51 -279 175 -41 49 -43 55 -42 115
1 95 8 111 54 125 52 15 143 16 186 1z m6718 -2004 c22 -27 23 -34 46 -259 9
-82 22 -197 30 -255 8 -58 17 -134 20 -170 10 -108 54 -359 79 -450 13 -47 32
-119 41 -160 20 -89 66 -222 96 -282 66 -128 101 -239 114 -357 6 -56 30 -130
108 -334 16 -43 40 -78 92 -131 115 -118 280 -235 373 -266 30 -10 64 -28 75
-39 20 -20 44 -102 111 -376 13 -55 32 -129 41 -165 16 -58 17 -98 11 -360
-10 -454 -15 -486 -96 -600 -25 -35 -40 -95 -40 -158 0 -69 -41 -188 -91 -269
-22 -34 -39 -66 -39 -69 0 -4 -12 -22 -26 -41 -14 -18 -36 -64 -49 -101 -13
-37 -42 -114 -65 -172 -23 -58 -56 -145 -74 -195 -67 -184 -86 -219 -206 -369
-30 -38 -64 -84 -75 -102 -11 -18 -34 -57 -52 -86 -17 -29 -73 -93 -123 -142
-51 -50 -117 -124 -146 -165 -30 -42 -64 -89 -77 -106 -12 -16 -45 -61 -73
-100 -60 -81 -145 -165 -195 -190 -46 -24 -122 -79 -194 -141 -33 -29 -85 -64
-115 -78 -30 -14 -100 -49 -155 -78 -56 -29 -116 -60 -135 -69 -19 -9 -53 -25
-75 -36 -118 -60 -180 -86 -280 -118 -60 -19 -132 -42 -160 -51 -27 -9 -61
-24 -75 -34 -14 -10 -35 -21 -48 -25 -13 -4 -78 -29 -145 -57 -67 -27 -154
-58 -194 -68 -88 -23 -202 -71 -264 -111 -103 -66 -189 -100 -278 -110 -103
-12 -112 -14 -226 -51 -198 -64 -271 -103 -301 -160 -22 -42 -63 -191 -80
-287 -12 -65 -29 -111 -74 -200 -56 -111 -59 -121 -75 -246 -23 -182 -62 -365
-100 -465 -30 -79 -35 -87 -79 -111 -63 -34 -118 -90 -151 -153 -16 -28 -44
-71 -63 -94 l-35 -44 -81 4 c-58 2 -89 8 -106 21 -14 9 -61 42 -105 71 -44 30
-87 61 -95 69 -44 42 -169 180 -195 216 -16 23 -42 59 -58 79 -15 20 -54 78
-87 127 -33 50 -79 111 -102 137 -24 26 -54 69 -68 96 -33 64 -79 136 -111
175 -14 18 -33 46 -42 63 -9 18 -36 61 -61 97 -64 93 -74 116 -86 193 -5 38
-17 96 -25 129 -96 393 -96 394 -75 680 5 72 13 180 16 240 4 61 13 128 21
150 8 22 16 85 19 140 6 114 39 251 88 370 19 44 37 96 41 115 4 19 16 55 26
80 10 25 26 74 35 110 8 36 27 92 41 124 13 33 33 98 43 145 11 48 28 107 39
131 44 101 35 251 -19 328 -16 23 -30 47 -30 53 0 6 -72 82 -160 170 -87 88
-170 178 -184 202 -34 57 -62 186 -75 337 -15 166 -14 219 5 363 12 99 22 136
51 196 36 76 93 172 122 204 9 11 27 38 41 61 14 24 40 67 57 98 50 84 252
273 364 341 52 31 113 71 136 89 23 18 88 69 145 114 57 45 135 98 173 119 39
20 99 65 135 99 36 34 94 84 130 111 36 27 117 97 180 156 63 59 140 130 170
158 30 29 75 64 100 78 88 52 226 162 260 207 51 69 153 150 260 207 46 24
121 78 152 110 10 10 34 30 55 45 21 16 83 71 138 124 55 52 127 115 159 140
34 26 85 80 120 128 41 56 74 89 101 103 22 12 65 45 95 74 30 29 91 83 135
120 l80 66 88 -3 88 -3 24 -58 c41 -102 132 -191 219 -215 50 -14 132 2 166
33 14 12 37 30 52 39 31 20 137 156 166 213 11 21 30 47 41 57 12 11 29 35 38
53 8 18 43 64 77 102 33 38 79 104 101 147 54 108 108 188 174 259 60 65 121
172 121 212 0 13 7 37 15 53 15 28 19 30 75 30 51 0 61 -3 79 -26z"/>
<path d="M21510 31771 c0 -5 11 -16 25 -25 21 -14 25 -24 25 -69 0 -29 -6 -60
-12 -69 -19 -23 -91 -46 -198 -63 -150 -24 -236 -20 -343 14 -87 28 -359 71
-448 71 -42 0 -139 -29 -139 -42 0 -4 21 -8 48 -8 70 0 282 -47 306 -67 11
-10 31 -31 44 -46 29 -33 70 -52 137 -61 28 -4 73 -15 100 -26 28 -10 95 -25
150 -34 152 -25 268 -78 420 -191 55 -41 105 -75 111 -75 6 0 35 -17 65 -38
43 -31 80 -45 179 -71 69 -17 138 -41 153 -52 l28 -21 -17 33 c-9 18 -23 39
-31 47 -10 10 -13 33 -11 76 l3 61 60 0 c53 0 61 -3 70 -23 6 -13 20 -25 33
-29 13 -3 34 -23 48 -44 13 -22 29 -39 34 -39 5 0 18 -17 29 -37 10 -21 28
-46 39 -56 11 -10 26 -33 33 -50 7 -18 25 -48 41 -68 15 -20 28 -41 28 -47 0
-5 18 -36 40 -68 22 -33 40 -63 40 -68 0 -5 26 -52 58 -104 93 -153 128 -224
162 -328 33 -101 72 -188 90 -199 6 -4 10 12 10 43 0 122 -43 248 -129 375
-48 71 -111 174 -133 217 -7 14 -22 41 -34 61 -13 20 -27 55 -34 78 -6 24 -21
48 -35 57 -13 8 -28 29 -34 46 -15 42 -14 151 1 166 16 16 113 16 126 0 5 -7
13 -28 17 -46 3 -18 15 -37 26 -43 11 -5 24 -22 30 -36 16 -44 19 -20 3 32
-28 95 -52 136 -154 260 -124 150 -246 269 -318 309 -64 36 -69 37 -115 27
-27 -6 -74 -11 -105 -11 -51 0 -62 4 -107 40 -27 21 -70 50 -95 63 -25 13 -76
41 -115 62 -38 20 -79 45 -90 55 -29 26 -115 72 -115 61z"/>
<path d="M13181 31459 c-25 -5 -83 -20 -130 -33 -47 -14 -120 -30 -160 -36
-41 -6 -94 -19 -118 -30 -25 -11 -80 -22 -131 -26 -77 -6 -91 -10 -117 -34
-19 -18 -54 -35 -95 -45 -36 -9 -75 -23 -88 -31 -13 -9 -53 -27 -90 -40 -36
-14 -77 -34 -92 -44 -14 -10 -52 -30 -83 -44 -52 -23 -107 -56 -236 -142 -24
-16 -58 -38 -75 -49 -98 -61 -174 -126 -276 -237 -63 -67 -106 -115 -95 -106
11 9 32 21 46 26 14 6 55 33 92 61 36 28 88 63 114 77 26 15 55 32 63 39 8 7
32 18 53 25 20 6 58 26 85 44 55 38 209 116 229 116 8 0 35 9 60 21 26 12 69
28 97 36 28 8 62 21 76 29 14 8 37 18 52 23 25 9 27 15 30 68 l3 58 68 3 67 3
0 34 c0 38 -8 34 115 55 39 6 116 27 173 46 56 19 108 34 115 34 7 0 29 9 50
20 20 11 80 31 131 44 125 32 170 55 67 35z"/>
<path d="M23706 29530 c39 -55 68 -76 248 -187 70 -43 129 -98 184 -170 33
-43 102 -119 154 -168 58 -55 98 -102 102 -119 9 -35 70 -110 102 -125 23 -10
24 -15 24 -106 l0 -95 -59 0 c-52 0 -61 3 -75 25 -10 14 -28 31 -40 37 -13 5
-29 21 -35 34 -6 14 -19 28 -28 31 -31 11 -102 76 -149 133 -62 76 -105 122
-110 117 -3 -2 -8 -24 -12 -48 -9 -54 -34 -69 -118 -69 -55 0 -67 4 -115 38
-29 20 -89 71 -133 113 -45 42 -106 95 -136 118 -30 22 -98 77 -150 121 -98
83 -160 128 -182 132 -9 2 -14 -18 -18 -72 l-5 -75 -72 -3 c-50 -2 -89 3 -130
16 -69 23 -82 17 -113 -45 -13 -26 -38 -54 -60 -68 -21 -13 -41 -29 -45 -35
-13 -22 6 -60 38 -76 17 -9 49 -34 70 -55 34 -36 37 -43 37 -99 l0 -60 -76 0
c-60 0 -82 4 -104 20 -16 11 -43 23 -62 26 -18 4 -49 17 -68 30 -19 13 -66 30
-104 39 -39 9 -78 21 -87 26 -10 5 -20 5 -23 0 -12 -19 53 -61 269 -170 132
-67 212 -116 253 -153 25 -23 51 -41 157 -111 22 -15 46 -36 53 -47 12 -20
120 -96 186 -132 63 -34 94 -12 56 40 -17 23 -21 40 -18 87 l3 59 40 11 c22 5
50 16 63 23 30 17 31 15 -137 161 -180 156 -230 197 -267 216 -17 9 -46 34
-63 55 -26 33 -31 47 -31 93 0 63 5 67 84 67 57 0 165 -47 215 -93 14 -14 41
-28 60 -32 22 -5 70 -39 140 -100 59 -51 125 -102 147 -113 22 -11 61 -37 86
-59 51 -42 88 -62 161 -88 27 -9 67 -31 90 -49 l42 -32 3 -90 c3 -87 2 -92
-28 -133 -20 -27 -47 -49 -75 -61 -46 -20 -52 -28 -36 -45 5 -6 21 -40 35 -77
26 -71 93 -170 125 -188 11 -5 57 -10 103 -10 84 0 84 0 119 -36 45 -48 85
-64 162 -64 52 0 75 -6 131 -34 69 -35 126 -80 126 -101 0 -41 127 -94 245
-104 l80 -6 18 -70 c55 -211 167 -310 275 -245 18 11 31 24 28 29 -3 4 -38 11
-78 14 -68 6 -75 8 -105 42 -45 52 -63 113 -73 245 -8 114 -17 161 -46 249
-10 30 -14 81 -13 160 2 117 -24 290 -57 384 -8 22 -14 51 -14 65 0 29 -75
197 -130 293 -21 36 -84 113 -139 173 -55 59 -132 150 -172 202 -83 110 -173
195 -238 225 -25 12 -98 47 -161 78 -63 30 -169 74 -236 96 l-121 40 33 -45z"/>
<path d="M21638 28765 c12 -16 35 -38 51 -49 15 -12 57 -43 92 -70 35 -27 84
-58 109 -70 25 -11 59 -30 75 -42 17 -12 55 -33 85 -47 30 -15 87 -47 125 -71
39 -25 75 -45 80 -46 6 0 44 -20 85 -45 41 -24 97 -56 123 -72 54 -31 158 -96
197 -123 14 -10 46 -28 70 -40 25 -13 56 -31 69 -42 14 -10 44 -27 68 -38 46
-20 77 -42 146 -101 23 -20 76 -61 117 -91 41 -31 88 -70 104 -86 28 -30 30
-30 57 -16 16 8 29 18 29 22 0 16 -102 111 -180 167 -46 33 -103 76 -128 95
-45 35 -102 75 -155 108 -16 9 -66 40 -110 69 -72 46 -140 87 -320 195 -26 15
-51 28 -55 28 -4 0 -65 29 -137 64 -71 36 -152 75 -180 88 -56 26 -54 25 -190
94 -95 48 -153 81 -220 128 l-30 20 23 -29z"/>
<path d="M13925 26144 c67 -60 164 -111 254 -135 41 -10 84 -25 95 -32 12 -8
53 -22 91 -32 39 -10 97 -30 130 -46 97 -45 226 -64 400 -61 83 2 161 7 175
12 14 5 55 20 92 34 38 15 87 26 114 26 58 0 126 24 174 60 19 15 49 34 65 43
36 19 134 106 120 106 -5 1 -28 -10 -50 -23 -22 -14 -76 -43 -120 -65 -71 -36
-94 -42 -210 -56 -71 -8 -160 -23 -196 -31 -43 -10 -96 -15 -147 -13 -67 3
-85 8 -105 27 -23 22 -32 23 -218 26 -188 4 -197 5 -293 37 -54 18 -110 42
-125 54 -14 12 -46 32 -71 45 -25 13 -58 33 -73 46 -23 20 -40 24 -90 24 l-62
-1 50 -45z"/>
<path d="M20665 22513 c-16 -2 -73 -11 -125 -19 -52 -9 -160 -20 -240 -24 -80
-5 -183 -13 -230 -19 -47 -6 -116 -11 -153 -11 -130 0 -569 -62 -782 -110 -44
-10 -100 -21 -125 -25 -25 -4 -68 -18 -97 -31 -29 -13 -92 -35 -140 -48 -48
-13 -106 -32 -128 -42 -66 -28 -231 -31 -330 -5 -44 12 -123 31 -175 42 -52
11 -124 34 -159 50 -35 16 -67 29 -71 29 -4 0 -19 -18 -34 -40 -25 -38 -29
-40 -79 -40 -46 0 -58 5 -102 40 -27 22 -54 40 -60 40 -5 0 -21 -9 -35 -20
-19 -15 -41 -20 -90 -20 -38 0 -71 5 -78 12 -21 21 -45 -57 -43 -140 3 -210
56 -333 212 -497 55 -58 87 -118 149 -283 18 -46 94 -98 171 -116 35 -9 69
-23 76 -33 29 -39 3 -269 -42 -373 -13 -30 -26 -64 -29 -76 -12 -41 -71 -93
-114 -100 -32 -5 -51 -17 -82 -50 -58 -63 -55 -89 17 -153 65 -58 100 -71 193
-71 36 0 90 -7 120 -15 30 -8 74 -15 97 -15 49 0 57 -10 68 -85 8 -62 47 -106
125 -144 30 -14 66 -34 80 -44 153 -110 327 -190 529 -243 51 -14 105 -31 120
-39 15 -7 43 -16 64 -20 20 -4 57 -20 82 -36 26 -16 81 -39 122 -50 65 -18 84
-19 127 -10 28 6 96 20 151 31 55 12 152 25 215 29 100 7 121 12 157 34 56 36
61 47 15 36 -20 -5 -69 -9 -108 -9 -44 0 -110 -10 -170 -26 -145 -37 -299 -44
-392 -15 -39 12 -99 41 -134 64 -35 24 -83 57 -108 74 -25 17 -63 36 -85 43
-76 23 -164 79 -190 120 -13 21 -29 41 -35 45 -5 3 -10 32 -10 64 0 67 5 71
98 71 52 0 112 21 112 40 0 5 -14 25 -30 44 -34 38 -196 112 -310 141 -92 23
-110 43 -110 119 0 74 19 109 89 165 65 51 135 71 248 71 l89 0 51 -52 c57
-59 81 -103 111 -198 47 -153 178 -292 291 -311 58 -9 108 -23 191 -54 53 -20
170 -16 260 10 30 8 96 24 145 34 50 11 107 29 127 39 21 11 67 28 103 37 47
13 79 30 110 57 25 22 43 44 39 49 -3 5 -21 9 -40 9 -62 0 -74 13 -74 79 0 54
4 63 62 150 l61 93 5 106 c6 135 11 142 102 142 79 0 302 -52 340 -79 47 -33
69 -41 156 -57 70 -12 99 -22 145 -53 32 -21 78 -49 104 -61 45 -22 48 -22 97
-6 28 9 77 16 110 16 50 0 63 -4 78 -22 109 -132 137 -157 173 -158 33 0 17
38 -47 115 -23 28 -52 69 -63 91 -53 103 -160 217 -238 255 -22 10 -73 48
-112 83 -40 36 -78 68 -85 73 -7 4 -49 46 -92 93 -72 77 -113 109 -209 162
-31 17 -61 38 -152 105 -69 50 -175 101 -255 122 -41 11 -89 24 -107 30 -23 7
-49 5 -92 -4 -83 -20 -397 -55 -488 -55 -58 0 -83 5 -108 20 -28 17 -39 19
-85 10 -68 -13 -185 -13 -232 0 -20 6 -50 26 -67 46 -27 30 -31 42 -31 94 0
67 5 73 79 85 25 4 69 16 99 26 30 10 106 26 170 34 131 18 177 26 307 56 80
19 130 22 450 25 283 4 365 2 385 -8 14 -8 38 -37 53 -65 15 -29 49 -69 75
-90 26 -21 94 -86 152 -144 58 -58 148 -143 200 -190 52 -46 118 -106 146
-134 51 -51 94 -83 192 -144 60 -38 91 -41 235 -26 l67 7 0 73 c0 92 12 105
98 105 49 0 66 -4 86 -22 35 -31 204 -369 246 -493 l34 -100 18 80 c11 44 20
116 21 160 2 76 0 85 -43 174 -36 76 -56 103 -105 147 -33 30 -76 61 -95 70
-61 29 -89 54 -144 127 -29 40 -67 85 -85 101 -28 27 -31 36 -30 85 0 31 4 80
8 110 l8 53 -56 39 c-122 85 -198 133 -270 171 -110 58 -161 100 -281 236 -34
38 -56 53 -90 62 -25 6 -74 22 -110 36 -90 36 -281 53 -405 37z m10 -987 c55
-21 116 -47 135 -60 19 -12 64 -40 100 -62 39 -23 101 -77 155 -133 49 -52
118 -124 153 -159 41 -43 62 -72 62 -88 0 -17 6 -24 20 -24 18 0 20 -7 20 -70
l0 -71 -62 3 c-60 3 -63 4 -66 31 -3 25 -7 27 -46 27 -27 0 -61 10 -91 25 -26
14 -82 32 -124 39 -42 8 -96 22 -121 31 -25 9 -90 25 -145 35 -55 11 -125 26
-155 34 -168 45 -471 47 -554 4 -36 -19 -58 -22 -181 -22 -124 -1 -144 1 -175
20 -46 27 -71 34 -159 43 -65 8 -77 12 -108 43 -38 39 -52 84 -53 171 0 54 2
58 33 77 17 11 41 20 52 20 11 0 52 11 92 25 53 18 112 27 220 35 81 6 202 22
268 35 161 33 168 33 415 30 l215 -3 100 -36z m-698 -572 c34 -23 65 -54 75
-74 27 -53 23 -125 -10 -185 -32 -58 -64 -74 -156 -74 -77 -1 -96 15 -96 81 0
46 -2 50 -35 64 -19 7 -43 14 -54 14 -11 0 -32 5 -46 12 -23 10 -25 17 -25 70
l0 58 63 41 c62 41 62 41 144 37 76 -4 86 -7 140 -44z"/>
<path d="M17086 20471 c-9 -13 40 -187 68 -245 13 -28 39 -89 58 -136 l33 -85
-3 -300 c-2 -222 -7 -325 -19 -395 -24 -138 -21 -236 10 -352 15 -54 34 -112
44 -130 l18 -33 7 105 c26 412 38 484 97 600 16 30 32 66 36 79 4 14 30 54 57
89 77 99 78 107 18 282 -34 99 -68 168 -105 210 -12 14 -33 47 -45 75 -27 57
-130 161 -208 211 -58 38 -58 38 -66 25z"/>
</g>
</svg>
