<?xml version="1.0" standalone="no"?>
<!DOCTYPE svg PUBLIC "-//W3C//DTD SVG 20010904//EN"
 "http://www.w3.org/TR/2001/REC-SVG-20010904/DTD/svg10.dtd">
<svg version="1.0" xmlns="http://www.w3.org/2000/svg"
 width="200.000000pt" height="200.000000pt" viewBox="0 0 200.000000 200.000000"
 preserveAspectRatio="xMidYMid meet">
<metadata>
Created by potrace 1.16, written by Peter Selinger 2001-2019
</metadata>
<g transform="translate(0.000000,200.000000) scale(0.038314,-0.029762)"
fill="#000000" stroke="none">
<path d="M3190 5782 c0 -3 9 -25 21 -49 18 -38 25 -43 55 -43 l34 0 0 -59 c0
-56 1 -59 30 -71 l30 -12 -1 -97 c-1 -68 3 -107 15 -135 9 -21 16 -62 16 -92
0 -46 -3 -55 -27 -72 -38 -26 -119 -52 -164 -52 -21 0 -40 -4 -43 -9 -3 -4
-33 -16 -66 -25 -49 -14 -61 -22 -66 -42 -4 -14 -4 -27 -2 -29 4 -4 215 -35
235 -35 2 0 3 -24 3 -54 0 -65 -21 -86 -85 -86 -23 0 -50 -7 -61 -15 -17 -13
-15 -14 34 -15 28 0 52 -4 52 -10 0 -5 18 -10 40 -10 l40 0 0 -58 c0 -53 -3
-60 -30 -80 -16 -12 -36 -22 -44 -22 -9 0 -30 -14 -48 -31 -32 -29 -32 -30 -8
-25 174 43 395 86 483 93 l77 6 0 -56 c0 -51 -2 -57 -22 -61 -163 -31 -360
-79 -543 -131 -212 -61 -476 -127 -579 -145 -33 -6 -63 -13 -66 -15 -4 -2
-101 -20 -216 -39 -212 -36 -275 -46 -419 -66 -297 -41 -458 -68 -622 -106
-34 -8 -83 -14 -108 -14 -38 0 -45 3 -45 19 0 18 -5 17 -62 -12 -35 -18 -65
-34 -68 -37 -3 -3 -16 -13 -30 -21 -73 -47 -170 -145 -195 -197 -10 -20 -24
-50 -31 -65 -8 -16 -17 -52 -20 -81 -6 -46 -2 -62 26 -120 43 -92 109 -153
223 -209 51 -24 112 -50 137 -57 25 -7 54 -16 65 -20 11 -4 52 -16 90 -26 39
-9 75 -19 80 -21 6 -2 9 25 7 74 -2 43 -1 111 3 151 l7 72 34 0 c24 0 34 5 34
15 0 8 6 15 13 15 7 0 18 9 25 20 10 17 23 20 87 20 68 0 76 2 91 25 9 13 18
42 21 64 4 31 19 55 65 105 33 36 66 66 73 66 7 0 20 16 29 35 17 34 18 35 76
35 49 0 61 3 70 20 22 41 185 23 498 -57 101 -26 102 -26 123 -7 l21 19 -28 6
c-16 4 -57 7 -90 8 -41 1 -66 6 -74 16 -7 8 -23 15 -36 15 -23 0 -24 3 -24 65
0 55 3 65 18 65 9 0 32 9 50 20 66 40 209 19 233 -34 23 -49 50 -51 299 -16
41 5 111 14 155 20 44 6 114 14 155 20 193 24 319 1 426 -77 17 -13 34 -23 38
-23 4 0 20 -10 36 -22 24 -17 30 -29 30 -59 0 -21 11 -56 26 -84 44 -77 64
-175 71 -342 l6 -152 32 25 c26 19 44 24 93 24 l62 0 0 -30 c0 -16 5 -30 10
-30 6 0 10 -10 11 -22 2 -60 18 43 25 160 9 166 33 220 119 276 16 11 34 23
40 28 5 5 32 25 60 46 133 99 345 302 345 330 0 6 5 12 10 12 6 0 10 4 10 10
0 5 13 29 30 52 67 96 44 208 -63 313 -34 34 -78 67 -97 74 -19 7 -49 19 -66
27 -83 36 -241 47 -466 31 -105 -8 -118 -7 -118 7 0 9 -4 16 -9 16 -5 0 -15
25 -21 56 -7 31 -20 75 -31 97 -10 23 -19 50 -19 60 0 11 -7 33 -15 50 -8 18
-30 73 -49 122 -32 85 -95 222 -116 255 -5 8 -26 43 -45 77 -19 34 -42 68 -50
76 -7 8 -25 31 -39 51 -50 74 -83 112 -182 212 -86 86 -144 129 -144 106z"/>
<path d="M3265 3819 c-16 -5 -57 -14 -90 -19 -63 -10 -105 -41 -105 -79 0 -20
-19 -31 -54 -31 -38 0 -56 -30 -56 -93 0 -31 -9 -80 -19 -109 -32 -90 -43
-220 -27 -340 l7 -58 52 0 52 0 -3 122 c-3 108 -1 125 15 142 14 15 17 32 15
75 -3 46 1 62 18 84 12 15 30 27 41 27 17 0 19 7 19 59 0 64 19 95 76 124 95
48 314 44 416 -9 18 -9 28 -11 28 -4 0 19 -63 70 -86 70 -11 0 -24 3 -28 8 -8
8 -122 29 -196 37 -25 2 -58 0 -75 -6z"/>
<path d="M2398 3683 c-13 -3 -18 -15 -18 -44 l0 -39 -45 0 c-29 0 -45 -4 -45
-12 0 -27 19 -40 64 -45 36 -5 46 -9 46 -24 0 -12 7 -19 20 -19 16 0 20 7 20
35 0 30 3 35 24 35 32 0 41 16 22 36 -9 8 -16 23 -16 33 0 19 -30 52 -46 50
-5 -1 -17 -3 -26 -6z"/>
<path d="M3051 2903 l-1 -53 -59 0 c-50 0 -61 3 -74 23 l-15 22 -38 -39 c-35
-36 -37 -43 -35 -90 2 -54 -18 -110 -44 -120 -20 -7 28 -56 56 -56 35 0 84
-26 138 -74 49 -44 83 -57 95 -37 3 5 -12 18 -33 30 -75 39 -91 59 -91 117 0
50 1 52 31 58 17 3 47 6 66 6 l34 0 -7 98 c-3 53 -10 113 -14 132 -8 33 -8 32
-9 -17z"/>
<path d="M3456 2113 c-3 -10 -32 -46 -63 -80 -32 -34 -69 -74 -84 -90 -23 -25
-50 -49 -117 -100 -13 -10 -36 -28 -52 -40 -15 -13 -33 -23 -39 -23 -6 0 -11
-4 -11 -8 0 -4 -14 -16 -32 -26 -30 -18 -57 -38 -82 -62 -6 -6 -45 -33 -86
-60 l-75 -49 -122 0 c-68 0 -123 -2 -123 -5 0 -3 33 -20 73 -39 39 -19 76 -39
80 -45 4 -6 7 -54 7 -106 0 -52 3 -125 6 -162 6 -67 6 -68 35 -68 27 0 29 3
29 38 0 21 4 42 9 47 5 6 28 55 52 110 24 55 50 105 58 112 17 13 91 17 129 7
22 -6 22 -9 20 -143 -1 -124 1 -139 20 -171 32 -51 30 -120 -6 -179 -15 -25
-37 -66 -47 -91 -11 -25 -33 -66 -50 -92 -16 -25 -45 -73 -63 -105 -18 -32
-48 -76 -67 -96 -40 -44 -45 -57 -12 -33 12 9 33 21 46 26 12 6 51 38 85 73
65 65 97 88 156 113 107 47 121 57 168 122 26 37 55 82 65 101 10 19 24 40 30
46 7 7 19 23 27 35 8 12 22 30 30 40 8 11 24 31 35 45 24 30 27 34 85 105 64
78 100 127 100 138 0 5 -9 17 -20 27 -13 12 -20 31 -20 55 0 21 -6 40 -13 43
-9 3 -11 -13 -9 -69 l4 -74 -60 0 -60 0 -32 96 -32 95 11 192 c6 106 16 229
22 275 11 79 8 116 -5 75z m-66 -802 c0 -44 5 -83 10 -86 6 -3 10 -32 10 -64
0 -50 -5 -63 -37 -109 -38 -51 -39 -51 -92 -52 l-53 0 5 78 c8 120 25 275 32
295 6 13 19 17 66 17 l59 0 0 -79z"/>
<path d="M3805 1329 c-8 -40 -38 -93 -73 -131 -37 -41 -80 -249 -55 -269 10
-9 13 -6 13 14 0 22 7 28 42 39 24 7 58 29 83 55 24 24 52 43 64 43 25 0 26
-1 -29 167 -35 107 -38 113 -45 82z"/>
<path d="M1674 921 c-67 -27 -93 -54 -115 -123 -11 -35 -25 -72 -31 -82 -8
-16 -7 -18 7 -12 9 3 34 6 56 6 33 0 41 4 54 30 13 26 21 30 55 30 39 0 40 1
40 35 0 24 5 35 15 35 25 0 17 44 -12 72 -27 24 -29 25 -69 9z"/>
<path d="M4010 756 c0 -80 -4 -101 -25 -143 -38 -76 -16 -119 72 -138 31 -6
32 -6 35 36 3 38 6 43 37 54 22 7 30 14 23 19 -7 4 -12 27 -12 50 0 36 -6 50
-35 82 -20 21 -46 60 -58 86 -12 26 -25 47 -29 48 -5 0 -8 -42 -8 -94z"/>
<path d="M3570 730 c-8 -5 -27 -10 -42 -10 -15 0 -30 -5 -33 -10 -4 -6 -21
-17 -38 -26 -18 -8 -60 -30 -95 -48 l-63 -33 52 -6 c55 -7 69 -17 69 -53 0
-17 8 -23 38 -28 59 -9 172 -7 172 4 0 6 25 10 56 10 54 0 56 1 50 23 -3 12
-6 30 -6 39 0 17 -122 148 -138 148 -4 0 -14 -5 -22 -10z"/>
</g>
</svg>
