<?xml version="1.0" standalone="no"?>
<!DOCTYPE svg PUBLIC "-//W3C//DTD SVG 20010904//EN"
 "http://www.w3.org/TR/2001/REC-SVG-20010904/DTD/svg10.dtd">
<svg version="1.0" xmlns="http://www.w3.org/2000/svg"
 width="200px" height="200px" viewBox="0 0 598.000000 641.000000"
 preserveAspectRatio="xMidYMid meet">
<metadata>
Created by potrace 1.16, written by Peter Selinger 2001-2019
</metadata>
<g transform="translate(0.000000,641.000000) scale(0.100000,-0.100000)"
fill="#000000" stroke="none">
<path d="M2965 6113 c-266 -16 -575 -85 -798 -179 l-85 -35 5 -62 c3 -34 11
-87 19 -118 8 -31 14 -62 14 -69 0 -7 -21 -31 -46 -55 l-47 -42 23 -89 c31
-122 71 -268 75 -272 2 -2 22 9 46 25 49 32 102 36 143 10 26 -17 26 -19 11
-45 -23 -38 -85 -80 -148 -100 l-52 -17 -7 -60 c-3 -33 -11 -76 -17 -95 -15
-46 -14 -100 3 -186 23 -120 2 -174 -76 -195 -28 -7 -63 -34 -124 -93 -46 -46
-84 -90 -84 -97 0 -8 10 -19 23 -24 19 -9 22 -19 25 -70 2 -33 7 -64 11 -68 5
-5 29 15 54 43 l45 50 79 -35 78 -36 44 46 c97 103 213 175 250 155 27 -14 47
-62 86 -207 40 -146 58 -244 53 -300 -5 -57 -30 -55 -170 12 -86 41 -137 59
-184 65 -35 4 -81 18 -101 30 l-37 22 -17 -21 c-34 -42 -83 -18 -140 70 -39
61 -48 53 -19 -17 27 -62 64 -101 117 -125 28 -12 44 -26 47 -41 3 -13 7 -153
10 -313 5 -271 19 -426 45 -525 35 -130 61 -239 61 -260 1 -62 84 -170 131
-170 28 0 108 -48 223 -134 61 -45 144 -102 184 -126 41 -24 80 -56 87 -70 23
-44 97 -362 99 -420 l1 -54 -64 -26 c-42 -17 -86 -46 -127 -83 -92 -84 -148
-119 -270 -167 -60 -23 -122 -48 -139 -55 -16 -7 -75 -33 -130 -56 -221 -95
-522 -269 -532 -309 -3 -11 -32 -26 -78 -41 l-73 -24 -148 -195 c-81 -107
-195 -258 -254 -335 -193 -255 -363 -480 -374 -495 -14 -20 28 17 151 132 325
305 571 446 706 408 27 -7 59 -26 78 -46 l34 -35 -30 -24 c-31 -25 -28 -33 6
-14 11 6 33 11 50 11 16 1 29 4 29 8 0 4 10 10 23 13 12 2 67 14 122 27 185
40 268 71 337 123 l44 34 37 -67 c51 -93 61 -100 87 -58 11 18 25 49 32 68 11
34 12 33 28 -66 10 -56 30 -128 46 -163 28 -63 28 -64 38 -35 20 61 -42 443
-76 468 -8 6 -18 24 -22 39 -4 16 -33 56 -65 91 -61 66 -86 118 -79 167 5 35
3 36 -38 4 -38 -29 -47 -31 -65 -9 -7 9 -23 20 -36 25 -48 18 -21 75 54 113
73 37 114 6 48 -36 -43 -28 -45 -39 -5 -32 18 4 46 0 72 -11 70 -28 207 -4
266 47 18 15 43 28 56 28 48 0 215 -135 290 -234 28 -38 29 -38 80 -32 76 10
96 27 96 80 0 35 4 45 20 49 11 3 28 24 39 49 22 50 52 79 136 134 33 21 114
91 181 155 84 81 137 124 178 143 31 15 99 55 149 89 122 83 161 105 366 209
168 85 361 203 361 220 0 9 -68 -23 -150 -72 -265 -156 -1031 -510 -1104 -510
-15 0 -43 18 -74 48 -60 57 -61 64 -59 297 l2 170 125 6 c251 13 470 59 579
122 58 34 145 103 181 144 18 21 46 46 62 55 19 12 28 26 28 44 0 14 4 33 10
43 8 15 -3 23 -83 59 -51 23 -100 42 -110 42 -22 0 -178 -49 -193 -61 -7 -6
-11 2 -12 24 -1 32 1 34 106 86 126 62 199 112 212 147 6 14 7 42 4 63 -8 47
12 88 63 130 23 19 42 45 48 68 9 31 20 43 70 71 33 18 95 60 139 93 43 33 80
58 83 55 3 -2 0 -20 -6 -38 -18 -57 -16 -94 9 -143 l25 -47 -54 -49 c-30 -27
-50 -49 -44 -49 5 0 46 11 89 25 95 30 150 32 184 5 36 -28 55 -25 86 14 38
48 69 130 89 237 52 285 117 489 188 592 76 111 88 156 88 326 0 208 -32 401
-65 401 -19 0 -22 12 -42 137 -30 199 -71 331 -133 428 -17 27 -36 67 -42 87
-8 30 -15 38 -33 38 -33 0 -38 10 -17 36 25 32 14 83 -28 133 -17 20 -43 56
-58 81 -76 127 -217 272 -351 361 -202 133 -475 235 -751 280 -202 32 -439 44
-636 32z m710 -149 c230 -32 428 -93 608 -187 56 -28 116 -67 134 -84 18 -18
38 -33 45 -33 7 0 32 -18 55 -40 33 -31 43 -49 49 -85 3 -25 15 -56 25 -69 16
-20 17 -25 4 -30 -26 -10 -16 -44 20 -72 31 -23 48 -64 27 -64 -5 0 -48 14
-98 30 -142 49 -282 88 -374 104 -229 41 -504 56 -728 40 -76 -6 -93 -4 -87 6
18 29 24 86 13 123 -16 54 -79 121 -142 152 -99 49 -164 59 -376 60 -117 1
-205 6 -220 12 -14 6 -38 16 -54 22 -16 7 -27 14 -24 16 12 12 231 68 316 80
38 6 45 4 63 -19 12 -15 37 -33 56 -41 52 -22 181 -30 242 -15 50 12 55 17 52
53 -1 9 4 17 13 17 20 0 21 19 1 26 -76 30 162 28 380 -2z m82 -674 c116 -18
195 -45 227 -79 31 -33 28 -51 -10 -51 -33 0 -27 -24 7 -28 39 -6 43 -18 20
-57 -25 -44 -26 -66 -4 -108 11 -21 17 -57 17 -104 1 -81 -11 -106 -43 -86
-24 15 -31 8 -31 -34 0 -20 8 -41 20 -53 28 -28 26 -50 -5 -50 -28 0 -30 -3
-14 -32 34 -64 -143 -60 -308 6 -109 45 -188 58 -348 61 -143 2 -251 18 -240
35 3 5 28 7 55 4 28 -2 50 -2 50 0 0 2 -19 15 -43 29 -23 14 -51 35 -62 47
-45 49 -89 62 -216 61 -149 -1 -241 -20 -327 -67 -148 -82 -180 -96 -201 -89
-12 3 -21 14 -21 24 0 23 51 94 85 118 15 10 68 55 118 101 208 192 493 335
717 361 169 20 387 16 557 -9z m-307 -694 c47 -14 94 -26 104 -26 35 0 4 -17
-74 -41 -110 -33 -231 -32 -328 3 -91 34 -137 65 -122 83 8 9 50 12 173 10
140 -3 174 -7 247 -29z m535 -160 c55 -8 150 -24 210 -35 140 -26 147 -26 214
5 30 15 85 31 122 37 58 9 71 8 105 -9 39 -19 96 -89 109 -134 6 -21 0 -18
-41 22 -59 57 -120 81 -184 72 -100 -14 -191 -55 -264 -120 -26 -24 -53 -44
-58 -44 -22 0 1 -78 46 -153 25 -44 49 -90 52 -103 6 -24 -10 -43 -104 -125
-18 -15 -22 -28 -20 -57 3 -34 6 -37 33 -37 25 0 32 5 41 33 6 19 17 38 25 43
22 14 67 11 102 -8 18 -9 50 -19 71 -22 30 -5 43 -13 56 -36 35 -63 95 -32
145 73 37 78 30 93 -23 48 -24 -20 -46 -36 -48 -36 -2 0 4 16 13 35 15 31 15
47 3 163 -13 129 -10 182 12 182 6 0 27 -19 47 -42 92 -107 104 -113 114 -58
2 14 5 4 6 -23 1 -50 -21 -117 -38 -117 -6 0 -11 -14 -11 -31 0 -76 -94 -232
-199 -332 -118 -111 -235 -152 -309 -107 -41 25 -46 25 -82 -2 -24 -17 -32
-19 -45 -8 -8 7 -15 28 -15 47 0 42 -23 89 -53 104 -12 7 -50 12 -85 11 -71
-2 -119 16 -124 48 -3 20 -6 20 -70 -14 -37 -20 -72 -36 -77 -36 -16 0 -13 26
4 40 20 17 19 30 -3 30 -35 0 -54 -36 -62 -113 -4 -41 -10 -79 -14 -85 -3 -6
-28 -21 -54 -33 -26 -12 -55 -25 -64 -30 -10 -5 -38 -9 -63 -9 -28 0 -45 -4
-45 -12 0 -9 -3 -9 -12 0 -8 8 -20 7 -47 -6 -29 -13 -64 -16 -178 -15 -79 0
-154 4 -168 7 -24 6 -25 4 -25 -37 0 -57 -11 -66 -26 -22 -10 31 -9 43 8 88
42 111 42 104 -10 159 -64 68 -86 111 -78 159 6 37 5 39 -29 53 -45 19 -46 49
-5 130 17 32 30 72 30 87 0 19 8 33 23 42 12 8 75 46 140 86 117 72 222 123
327 156 30 10 82 31 115 48 33 16 91 35 130 42 94 18 307 18 430 1z m-1264
-145 c66 -42 96 -78 83 -99 -13 -20 -97 -52 -112 -43 -12 7 -37 79 -46 134 -6
32 -4 37 12 37 10 0 38 -13 63 -29z m-62 -527 c33 -27 54 -84 45 -120 -10 -41
-91 -57 -161 -32 -48 18 -63 0 -33 -42 27 -38 15 -52 -34 -40 -17 4 -57 13
-88 20 -32 7 -58 17 -58 21 0 4 18 41 40 82 34 63 46 77 83 92 132 54 161 57
206 19z m-47 -415 c23 -12 68 -48 101 -80 50 -50 58 -63 55 -90 -5 -49 -27
-56 -72 -25 -47 31 -66 33 -66 5 0 -14 13 -26 45 -40 25 -11 55 -34 68 -51 12
-17 42 -39 66 -50 33 -14 41 -22 33 -30 -9 -9 -18 -8 -38 1 -35 16 -64 -3 -89
-58 -22 -49 -53 -61 -99 -38 -17 8 -69 18 -116 21 -47 3 -118 15 -159 26 -41
11 -85 20 -98 20 -53 0 -37 62 33 131 l45 44 113 0 c95 0 117 -3 133 -18 11
-9 23 -14 26 -10 14 13 6 54 -13 73 -11 11 -20 29 -20 39 0 25 -87 117 -123
131 -40 14 -83 12 -97 -5 -16 -19 -30 -19 -30 0 0 58 191 61 302 4z"/>
<path d="M4940 2230 c-53 -69 -60 -84 -49 -95 24 -24 170 -77 254 -93 188 -35
658 -6 642 41 -8 26 -160 49 -321 49 -110 0 -140 4 -199 24 -87 30 -192 86
-233 126 l-32 30 -62 -82z"/>
<path d="M4986 2049 c-104 -24 -134 -135 -57 -212 l30 -31 -6 57 c-3 32 -2 57
3 57 5 0 43 -27 84 -60 41 -33 79 -60 83 -60 14 0 37 68 37 112 0 95 -81 158
-174 137z"/>
<path d="M2610 787 c0 -103 21 -318 41 -413 6 -35 16 -53 27 -56 31 -8 132 8
148 23 15 16 43 116 43 154 0 14 -8 7 -26 -24 l-27 -45 -31 100 c-28 87 -157
364 -170 364 -3 0 -5 -46 -5 -103z"/>
<path d="M3190 706 c0 -6 23 -35 50 -63 56 -59 82 -65 124 -32 34 27 31 59 -7
77 -37 18 -167 32 -167 18z"/>
<path d="M3098 655 c-4 -4 -1 -17 7 -29 8 -11 15 -29 15 -40 0 -11 7 -27 16
-37 26 -29 12 -43 -18 -20 -29 23 -44 14 -33 -19 13 -40 92 -33 115 10 9 17
14 19 26 10 18 -16 29 9 20 45 -11 45 -48 77 -96 82 -25 3 -48 2 -52 -2z"/>
<path d="M3277 532 c-10 -10 -17 -25 -17 -33 0 -17 -54 -71 -89 -89 -79 -40
-117 -30 -180 50 l-40 50 -6 -44 c-4 -25 -3 -57 2 -73 12 -35 50 -43 157 -31
78 8 108 18 136 46 28 29 104 72 125 72 12 0 30 -7 41 -15 47 -35 47 4 0 51
-27 27 -42 34 -73 34 -26 0 -46 -6 -56 -18z"/>
</g>
</svg>
